<mxfile host="app.diagrams.net" agent="Mozilla/5.0 (Windows NT 10.0; Win64; x64) AppleWebKit/537.36 (KHTML, like Gecko) Chrome/127.0.0.0 Safari/537.36" version="24.8.4">
  <diagram id="cUgM90u6OGX9hgd6Vjcb" name="第 1 页">
    <mxGraphModel dx="1912" dy="984" grid="1" gridSize="10" guides="1" tooltips="1" connect="1" arrows="1" fold="1" page="1" pageScale="1" pageWidth="827" pageHeight="1169" math="1" shadow="0">
      <root>
        <mxCell id="0" />
        <mxCell id="1" parent="0" />
        <mxCell id="wD4l3W-HGcE-d99SAAs_-1" value="" style="rounded=0;whiteSpace=wrap;html=1;" parent="1" vertex="1">
          <mxGeometry x="560" y="2720" width="1490" height="980" as="geometry" />
        </mxCell>
        <mxCell id="USW0w0qvwE-yAAdEJ6Uj-69" value="" style="rounded=0;whiteSpace=wrap;html=1;dashed=1;dashPattern=8 8;fillColor=#f8cecc;strokeColor=#b85450;" vertex="1" parent="1">
          <mxGeometry x="930" y="3522" width="143" height="68" as="geometry" />
        </mxCell>
        <mxCell id="USW0w0qvwE-yAAdEJ6Uj-57" value="" style="rounded=0;whiteSpace=wrap;html=1;dashed=1;dashPattern=8 8;fillColor=#f5f5f5;fontColor=#333333;strokeColor=#666666;" vertex="1" parent="1">
          <mxGeometry x="1583.5" y="2860" width="210" height="60" as="geometry" />
        </mxCell>
        <mxCell id="wD4l3W-HGcE-d99SAAs_-110" value="" style="rounded=0;whiteSpace=wrap;html=1;" parent="1" vertex="1">
          <mxGeometry x="550" y="3720" width="2160" height="940" as="geometry" />
        </mxCell>
        <mxCell id="REPrhJqGSvFfQSss4RAS-11" value="" style="rounded=0;whiteSpace=wrap;html=1;dashed=1;" parent="1" vertex="1">
          <mxGeometry x="880.5" y="4072.5" width="1099.5" height="317.5" as="geometry" />
        </mxCell>
        <mxCell id="wD4l3W-HGcE-d99SAAs_-157" value="" style="rounded=0;whiteSpace=wrap;html=1;dashed=1;" parent="1" vertex="1">
          <mxGeometry x="947" y="4210" width="853" height="140" as="geometry" />
        </mxCell>
        <mxCell id="wD4l3W-HGcE-d99SAAs_-156" value="" style="rounded=0;whiteSpace=wrap;html=1;dashed=1;" parent="1" vertex="1">
          <mxGeometry x="920" y="3920" width="880" height="130" as="geometry" />
        </mxCell>
        <mxCell id="5Ot4b3tRMixygAjQAWJP-36" value="" style="rounded=0;whiteSpace=wrap;html=1;" parent="1" vertex="1">
          <mxGeometry x="60" y="2090" width="850" height="590" as="geometry" />
        </mxCell>
        <mxCell id="gLiJT_Oy5ucblzhfaL7l-9" value="" style="edgeStyle=orthogonalEdgeStyle;rounded=0;orthogonalLoop=1;jettySize=auto;html=1;fontSize=14;" parent="1" source="gLiJT_Oy5ucblzhfaL7l-2" edge="1">
          <mxGeometry relative="1" as="geometry">
            <mxPoint x="120" y="360" as="targetPoint" />
          </mxGeometry>
        </mxCell>
        <mxCell id="gLiJT_Oy5ucblzhfaL7l-2" value="开始" style="strokeWidth=2;html=1;shape=mxgraph.flowchart.terminator;whiteSpace=wrap;fontSize=14;fillColor=#ffe6cc;strokeColor=#d79b00;" parent="1" vertex="1">
          <mxGeometry x="75" y="260" width="90" height="50" as="geometry" />
        </mxCell>
        <mxCell id="gLiJT_Oy5ucblzhfaL7l-38" value="N" style="edgeStyle=orthogonalEdgeStyle;rounded=0;orthogonalLoop=1;jettySize=auto;html=1;fontSize=14;endArrow=classic;endFill=1;" parent="1" source="gLiJT_Oy5ucblzhfaL7l-3" target="gLiJT_Oy5ucblzhfaL7l-13" edge="1">
          <mxGeometry relative="1" as="geometry" />
        </mxCell>
        <mxCell id="gLiJT_Oy5ucblzhfaL7l-39" value="Y" style="edgeStyle=orthogonalEdgeStyle;rounded=0;orthogonalLoop=1;jettySize=auto;html=1;exitX=1;exitY=0.5;exitDx=0;exitDy=0;exitPerimeter=0;entryX=0.5;entryY=0;entryDx=0;entryDy=0;fontSize=14;endArrow=classic;endFill=1;" parent="1" source="gLiJT_Oy5ucblzhfaL7l-3" target="gLiJT_Oy5ucblzhfaL7l-11" edge="1">
          <mxGeometry relative="1" as="geometry" />
        </mxCell>
        <mxCell id="gLiJT_Oy5ucblzhfaL7l-3" value="是否重置密码" style="strokeWidth=2;html=1;shape=mxgraph.flowchart.decision;whiteSpace=wrap;fontSize=14;" parent="1" vertex="1">
          <mxGeometry x="70" y="360" width="100" height="100" as="geometry" />
        </mxCell>
        <mxCell id="gLiJT_Oy5ucblzhfaL7l-10" value="结束" style="strokeWidth=2;html=1;shape=mxgraph.flowchart.terminator;whiteSpace=wrap;fontSize=14;fillColor=#ffe6cc;strokeColor=#d79b00;" parent="1" vertex="1">
          <mxGeometry x="75" y="850" width="90" height="50" as="geometry" />
        </mxCell>
        <mxCell id="gLiJT_Oy5ucblzhfaL7l-44" style="edgeStyle=orthogonalEdgeStyle;rounded=0;orthogonalLoop=1;jettySize=auto;html=1;exitX=0.5;exitY=1;exitDx=0;exitDy=0;entryX=0.5;entryY=0;entryDx=0;entryDy=0;entryPerimeter=0;fontSize=14;endArrow=classic;endFill=1;" parent="1" source="gLiJT_Oy5ucblzhfaL7l-11" target="gLiJT_Oy5ucblzhfaL7l-10" edge="1">
          <mxGeometry relative="1" as="geometry">
            <Array as="points">
              <mxPoint x="330" y="820" />
              <mxPoint x="120" y="820" />
            </Array>
          </mxGeometry>
        </mxCell>
        <mxCell id="gLiJT_Oy5ucblzhfaL7l-11" value="修改用户密码" style="rounded=1;whiteSpace=wrap;html=1;fontSize=14;" parent="1" vertex="1">
          <mxGeometry x="270" y="675" width="120" height="60" as="geometry" />
        </mxCell>
        <mxCell id="gLiJT_Oy5ucblzhfaL7l-31" value="" style="edgeStyle=orthogonalEdgeStyle;rounded=0;orthogonalLoop=1;jettySize=auto;html=1;fontSize=14;endArrow=classic;endFill=1;" parent="1" source="gLiJT_Oy5ucblzhfaL7l-13" target="gLiJT_Oy5ucblzhfaL7l-30" edge="1">
          <mxGeometry relative="1" as="geometry" />
        </mxCell>
        <mxCell id="gLiJT_Oy5ucblzhfaL7l-13" value="查询用户原信息" style="rounded=1;whiteSpace=wrap;html=1;fontSize=14;" parent="1" vertex="1">
          <mxGeometry x="60" y="550" width="120" height="60" as="geometry" />
        </mxCell>
        <mxCell id="gLiJT_Oy5ucblzhfaL7l-21" value="N:N" style="rounded=0;orthogonalLoop=1;jettySize=auto;html=1;fontSize=14;endArrow=none;endFill=0;" parent="1" source="gLiJT_Oy5ucblzhfaL7l-18" edge="1">
          <mxGeometry relative="1" as="geometry">
            <mxPoint x="730" y="400" as="targetPoint" />
          </mxGeometry>
        </mxCell>
        <mxCell id="gLiJT_Oy5ucblzhfaL7l-18" value="组织部门表" style="rounded=0;whiteSpace=wrap;html=1;fontSize=14;fillColor=#dae8fc;strokeColor=#6c8ebf;" parent="1" vertex="1">
          <mxGeometry x="670" y="260" width="120" height="60" as="geometry" />
        </mxCell>
        <mxCell id="gLiJT_Oy5ucblzhfaL7l-20" value="人员表" style="rounded=0;whiteSpace=wrap;html=1;fontSize=14;fillColor=#dae8fc;strokeColor=#6c8ebf;" parent="1" vertex="1">
          <mxGeometry x="670" y="400" width="120" height="60" as="geometry" />
        </mxCell>
        <mxCell id="gLiJT_Oy5ucblzhfaL7l-23" value="1:1" style="rounded=0;orthogonalLoop=1;jettySize=auto;html=1;fontSize=14;endArrow=none;endFill=0;" parent="1" source="gLiJT_Oy5ucblzhfaL7l-24" edge="1">
          <mxGeometry relative="1" as="geometry">
            <mxPoint x="730" y="630" as="targetPoint" />
          </mxGeometry>
        </mxCell>
        <mxCell id="gLiJT_Oy5ucblzhfaL7l-24" value="用户表" style="rounded=0;whiteSpace=wrap;html=1;fontSize=14;fillColor=#dae8fc;strokeColor=#6c8ebf;" parent="1" vertex="1">
          <mxGeometry x="670" y="490" width="120" height="60" as="geometry" />
        </mxCell>
        <mxCell id="gLiJT_Oy5ucblzhfaL7l-25" value="人员表" style="rounded=0;whiteSpace=wrap;html=1;fontSize=14;fillColor=#dae8fc;strokeColor=#6c8ebf;" parent="1" vertex="1">
          <mxGeometry x="670" y="630" width="120" height="60" as="geometry" />
        </mxCell>
        <mxCell id="gLiJT_Oy5ucblzhfaL7l-27" value="N:N" style="edgeStyle=none;rounded=0;orthogonalLoop=1;jettySize=auto;html=1;fontSize=14;endArrow=none;endFill=0;" parent="1" source="gLiJT_Oy5ucblzhfaL7l-26" target="gLiJT_Oy5ucblzhfaL7l-24" edge="1">
          <mxGeometry relative="1" as="geometry" />
        </mxCell>
        <mxCell id="gLiJT_Oy5ucblzhfaL7l-26" value="角色表" style="rounded=0;whiteSpace=wrap;html=1;fontSize=14;fillColor=#dae8fc;strokeColor=#6c8ebf;" parent="1" vertex="1">
          <mxGeometry x="450" y="490" width="120" height="60" as="geometry" />
        </mxCell>
        <mxCell id="gLiJT_Oy5ucblzhfaL7l-40" style="edgeStyle=orthogonalEdgeStyle;rounded=0;orthogonalLoop=1;jettySize=auto;html=1;exitX=1;exitY=0.5;exitDx=0;exitDy=0;exitPerimeter=0;entryX=0;entryY=0.5;entryDx=0;entryDy=0;fontSize=14;endArrow=classic;endFill=1;startArrow=none;" parent="1" source="gLiJT_Oy5ucblzhfaL7l-33" target="gLiJT_Oy5ucblzhfaL7l-11" edge="1">
          <mxGeometry relative="1" as="geometry" />
        </mxCell>
        <mxCell id="gLiJT_Oy5ucblzhfaL7l-42" value="N" style="edgeStyle=orthogonalEdgeStyle;rounded=0;orthogonalLoop=1;jettySize=auto;html=1;fontSize=14;endArrow=classic;endFill=1;" parent="1" source="gLiJT_Oy5ucblzhfaL7l-30" target="gLiJT_Oy5ucblzhfaL7l-10" edge="1">
          <mxGeometry relative="1" as="geometry" />
        </mxCell>
        <mxCell id="gLiJT_Oy5ucblzhfaL7l-30" value="原密码是否一致" style="strokeWidth=2;html=1;shape=mxgraph.flowchart.decision;whiteSpace=wrap;fontSize=14;" parent="1" vertex="1">
          <mxGeometry x="70" y="655" width="100" height="100" as="geometry" />
        </mxCell>
        <mxCell id="gLiJT_Oy5ucblzhfaL7l-33" value="Y" style="whiteSpace=wrap;html=1;fontSize=14;strokeWidth=1;fillColor=none;strokeColor=none;" parent="1" vertex="1">
          <mxGeometry x="200" y="695" width="30" height="20" as="geometry" />
        </mxCell>
        <mxCell id="gLiJT_Oy5ucblzhfaL7l-41" value="" style="edgeStyle=orthogonalEdgeStyle;rounded=0;orthogonalLoop=1;jettySize=auto;html=1;exitX=1;exitY=0.5;exitDx=0;exitDy=0;exitPerimeter=0;entryX=0;entryY=0.5;entryDx=0;entryDy=0;fontSize=14;endArrow=none;endFill=1;" parent="1" source="gLiJT_Oy5ucblzhfaL7l-30" target="gLiJT_Oy5ucblzhfaL7l-33" edge="1">
          <mxGeometry relative="1" as="geometry">
            <mxPoint x="170" y="705" as="sourcePoint" />
            <mxPoint x="270" y="705" as="targetPoint" />
          </mxGeometry>
        </mxCell>
        <mxCell id="gLiJT_Oy5ucblzhfaL7l-45" value="用户表" style="rounded=0;whiteSpace=wrap;html=1;fontSize=14;fillColor=#dae8fc;strokeColor=#6c8ebf;" parent="1" vertex="1">
          <mxGeometry x="650" y="940" width="120" height="60" as="geometry" />
        </mxCell>
        <mxCell id="gLiJT_Oy5ucblzhfaL7l-46" value="N:N" style="edgeStyle=none;rounded=0;orthogonalLoop=1;jettySize=auto;html=1;fontSize=14;endArrow=none;endFill=0;" parent="1" source="gLiJT_Oy5ucblzhfaL7l-47" target="gLiJT_Oy5ucblzhfaL7l-45" edge="1">
          <mxGeometry relative="1" as="geometry" />
        </mxCell>
        <mxCell id="gLiJT_Oy5ucblzhfaL7l-47" value="角色表" style="rounded=0;whiteSpace=wrap;html=1;fontSize=14;fillColor=#dae8fc;strokeColor=#6c8ebf;" parent="1" vertex="1">
          <mxGeometry x="650" y="810" width="120" height="60" as="geometry" />
        </mxCell>
        <mxCell id="gLiJT_Oy5ucblzhfaL7l-49" value="N:N" style="edgeStyle=orthogonalEdgeStyle;rounded=0;orthogonalLoop=1;jettySize=auto;html=1;fontSize=14;endArrow=none;endFill=0;" parent="1" source="gLiJT_Oy5ucblzhfaL7l-48" target="gLiJT_Oy5ucblzhfaL7l-47" edge="1">
          <mxGeometry relative="1" as="geometry" />
        </mxCell>
        <mxCell id="gLiJT_Oy5ucblzhfaL7l-48" value="权限表" style="rounded=0;whiteSpace=wrap;html=1;fontSize=14;fillColor=#dae8fc;strokeColor=#6c8ebf;" parent="1" vertex="1">
          <mxGeometry x="450" y="810" width="120" height="60" as="geometry" />
        </mxCell>
        <mxCell id="gLiJT_Oy5ucblzhfaL7l-50" value="角色表" style="rounded=0;whiteSpace=wrap;html=1;fontSize=14;fillColor=#dae8fc;strokeColor=#6c8ebf;" parent="1" vertex="1">
          <mxGeometry x="320" y="1000" width="120" height="60" as="geometry" />
        </mxCell>
        <mxCell id="gLiJT_Oy5ucblzhfaL7l-51" value="N:N" style="edgeStyle=orthogonalEdgeStyle;rounded=0;orthogonalLoop=1;jettySize=auto;html=1;fontSize=14;endArrow=none;endFill=0;" parent="1" source="gLiJT_Oy5ucblzhfaL7l-52" target="gLiJT_Oy5ucblzhfaL7l-50" edge="1">
          <mxGeometry relative="1" as="geometry" />
        </mxCell>
        <mxCell id="gLiJT_Oy5ucblzhfaL7l-52" value="权限表" style="rounded=0;whiteSpace=wrap;html=1;fontSize=14;fillColor=#dae8fc;strokeColor=#6c8ebf;" parent="1" vertex="1">
          <mxGeometry x="120" y="1000" width="120" height="60" as="geometry" />
        </mxCell>
        <mxCell id="gLiJT_Oy5ucblzhfaL7l-53" value="岗位表" style="rounded=0;whiteSpace=wrap;html=1;fontSize=14;fillColor=#dae8fc;strokeColor=#6c8ebf;" parent="1" vertex="1">
          <mxGeometry x="670" y="1030" width="120" height="60" as="geometry" />
        </mxCell>
        <mxCell id="gLiJT_Oy5ucblzhfaL7l-54" value="N:N" style="edgeStyle=orthogonalEdgeStyle;rounded=0;orthogonalLoop=1;jettySize=auto;html=1;fontSize=14;endArrow=none;endFill=0;" parent="1" source="gLiJT_Oy5ucblzhfaL7l-55" target="gLiJT_Oy5ucblzhfaL7l-53" edge="1">
          <mxGeometry relative="1" as="geometry" />
        </mxCell>
        <mxCell id="gLiJT_Oy5ucblzhfaL7l-55" value="人员表" style="rounded=0;whiteSpace=wrap;html=1;fontSize=14;fillColor=#dae8fc;strokeColor=#6c8ebf;" parent="1" vertex="1">
          <mxGeometry x="470" y="1030" width="120" height="60" as="geometry" />
        </mxCell>
        <mxCell id="gLiJT_Oy5ucblzhfaL7l-60" value="N:N" style="edgeStyle=orthogonalEdgeStyle;rounded=0;orthogonalLoop=1;jettySize=auto;html=1;fontSize=14;endArrow=none;endFill=0;" parent="1" source="gLiJT_Oy5ucblzhfaL7l-56" target="gLiJT_Oy5ucblzhfaL7l-59" edge="1">
          <mxGeometry relative="1" as="geometry" />
        </mxCell>
        <mxCell id="gLiJT_Oy5ucblzhfaL7l-56" value="人员表" style="rounded=0;whiteSpace=wrap;html=1;fontSize=14;fillColor=#dae8fc;strokeColor=#6c8ebf;" parent="1" vertex="1">
          <mxGeometry x="550" y="1140" width="120" height="60" as="geometry" />
        </mxCell>
        <mxCell id="gLiJT_Oy5ucblzhfaL7l-57" value="N:N" style="edgeStyle=orthogonalEdgeStyle;rounded=0;orthogonalLoop=1;jettySize=auto;html=1;fontSize=14;endArrow=none;endFill=0;" parent="1" source="gLiJT_Oy5ucblzhfaL7l-58" target="gLiJT_Oy5ucblzhfaL7l-56" edge="1">
          <mxGeometry relative="1" as="geometry" />
        </mxCell>
        <mxCell id="gLiJT_Oy5ucblzhfaL7l-58" value="岗位表" style="rounded=0;whiteSpace=wrap;html=1;fontSize=14;fillColor=#dae8fc;strokeColor=#6c8ebf;" parent="1" vertex="1">
          <mxGeometry x="350" y="1140" width="120" height="60" as="geometry" />
        </mxCell>
        <mxCell id="gLiJT_Oy5ucblzhfaL7l-59" value="组织部门" style="rounded=0;whiteSpace=wrap;html=1;fontSize=14;fillColor=#dae8fc;strokeColor=#6c8ebf;" parent="1" vertex="1">
          <mxGeometry x="550" y="1260" width="120" height="60" as="geometry" />
        </mxCell>
        <mxCell id="gLiJT_Oy5ucblzhfaL7l-92" value="department_employee" style="shape=table;startSize=30;container=1;collapsible=1;childLayout=tableLayout;fixedRows=1;rowLines=0;fontStyle=1;align=center;resizeLast=1;fillColor=#dae8fc;strokeColor=#6c8ebf;" parent="1" vertex="1">
          <mxGeometry x="390" y="1340" width="250" height="130" as="geometry" />
        </mxCell>
        <mxCell id="gLiJT_Oy5ucblzhfaL7l-93" value="" style="shape=partialRectangle;collapsible=0;dropTarget=0;pointerEvents=0;fillColor=none;points=[[0,0.5],[1,0.5]];portConstraint=eastwest;top=0;left=0;right=0;bottom=1;" parent="gLiJT_Oy5ucblzhfaL7l-92" vertex="1">
          <mxGeometry y="30" width="250" height="30" as="geometry" />
        </mxCell>
        <mxCell id="gLiJT_Oy5ucblzhfaL7l-94" value="PK" style="shape=partialRectangle;overflow=hidden;connectable=0;fillColor=none;top=0;left=0;bottom=0;right=0;fontStyle=1;" parent="gLiJT_Oy5ucblzhfaL7l-93" vertex="1">
          <mxGeometry width="30" height="30" as="geometry">
            <mxRectangle width="30" height="30" as="alternateBounds" />
          </mxGeometry>
        </mxCell>
        <mxCell id="gLiJT_Oy5ucblzhfaL7l-95" value="id int NOT NULL" style="shape=partialRectangle;overflow=hidden;connectable=0;fillColor=none;top=0;left=0;bottom=0;right=0;align=left;spacingLeft=6;fontStyle=5;" parent="gLiJT_Oy5ucblzhfaL7l-93" vertex="1">
          <mxGeometry x="30" width="220" height="30" as="geometry">
            <mxRectangle width="220" height="30" as="alternateBounds" />
          </mxGeometry>
        </mxCell>
        <mxCell id="gLiJT_Oy5ucblzhfaL7l-96" value="" style="shape=partialRectangle;collapsible=0;dropTarget=0;pointerEvents=0;fillColor=none;points=[[0,0.5],[1,0.5]];portConstraint=eastwest;top=0;left=0;right=0;bottom=0;" parent="gLiJT_Oy5ucblzhfaL7l-92" vertex="1">
          <mxGeometry y="60" width="250" height="30" as="geometry" />
        </mxCell>
        <mxCell id="gLiJT_Oy5ucblzhfaL7l-97" value="" style="shape=partialRectangle;overflow=hidden;connectable=0;fillColor=none;top=0;left=0;bottom=0;right=0;" parent="gLiJT_Oy5ucblzhfaL7l-96" vertex="1">
          <mxGeometry width="30" height="30" as="geometry">
            <mxRectangle width="30" height="30" as="alternateBounds" />
          </mxGeometry>
        </mxCell>
        <mxCell id="gLiJT_Oy5ucblzhfaL7l-98" value="" style="shape=partialRectangle;overflow=hidden;connectable=0;fillColor=none;top=0;left=0;bottom=0;right=0;align=left;spacingLeft=6;" parent="gLiJT_Oy5ucblzhfaL7l-96" vertex="1">
          <mxGeometry x="30" width="220" height="30" as="geometry">
            <mxRectangle width="220" height="30" as="alternateBounds" />
          </mxGeometry>
        </mxCell>
        <mxCell id="gLiJT_Oy5ucblzhfaL7l-99" value="" style="shape=partialRectangle;collapsible=0;dropTarget=0;pointerEvents=0;fillColor=none;points=[[0,0.5],[1,0.5]];portConstraint=eastwest;top=0;left=0;right=0;bottom=0;" parent="gLiJT_Oy5ucblzhfaL7l-92" vertex="1">
          <mxGeometry y="90" width="250" height="30" as="geometry" />
        </mxCell>
        <mxCell id="gLiJT_Oy5ucblzhfaL7l-100" value="" style="shape=partialRectangle;overflow=hidden;connectable=0;fillColor=none;top=0;left=0;bottom=0;right=0;" parent="gLiJT_Oy5ucblzhfaL7l-99" vertex="1">
          <mxGeometry width="30" height="30" as="geometry">
            <mxRectangle width="30" height="30" as="alternateBounds" />
          </mxGeometry>
        </mxCell>
        <mxCell id="gLiJT_Oy5ucblzhfaL7l-101" value="" style="shape=partialRectangle;overflow=hidden;connectable=0;fillColor=none;top=0;left=0;bottom=0;right=0;align=left;spacingLeft=6;" parent="gLiJT_Oy5ucblzhfaL7l-99" vertex="1">
          <mxGeometry x="30" width="220" height="30" as="geometry">
            <mxRectangle width="220" height="30" as="alternateBounds" />
          </mxGeometry>
        </mxCell>
        <mxCell id="gLiJT_Oy5ucblzhfaL7l-102" value="employee" style="shape=table;startSize=30;container=1;collapsible=1;childLayout=tableLayout;fixedRows=1;rowLines=0;fontStyle=1;align=center;resizeLast=1;fillColor=#dae8fc;strokeColor=#6c8ebf;" parent="1" vertex="1">
          <mxGeometry x="740" y="1340" width="250" height="160" as="geometry" />
        </mxCell>
        <mxCell id="gLiJT_Oy5ucblzhfaL7l-103" value="" style="shape=partialRectangle;collapsible=0;dropTarget=0;pointerEvents=0;fillColor=none;points=[[0,0.5],[1,0.5]];portConstraint=eastwest;top=0;left=0;right=0;bottom=1;" parent="gLiJT_Oy5ucblzhfaL7l-102" vertex="1">
          <mxGeometry y="30" width="250" height="30" as="geometry" />
        </mxCell>
        <mxCell id="gLiJT_Oy5ucblzhfaL7l-104" value="PK" style="shape=partialRectangle;overflow=hidden;connectable=0;fillColor=none;top=0;left=0;bottom=0;right=0;fontStyle=1;" parent="gLiJT_Oy5ucblzhfaL7l-103" vertex="1">
          <mxGeometry width="30" height="30" as="geometry">
            <mxRectangle width="30" height="30" as="alternateBounds" />
          </mxGeometry>
        </mxCell>
        <mxCell id="gLiJT_Oy5ucblzhfaL7l-105" value="" style="shape=partialRectangle;overflow=hidden;connectable=0;fillColor=none;top=0;left=0;bottom=0;right=0;align=left;spacingLeft=6;fontStyle=5;" parent="gLiJT_Oy5ucblzhfaL7l-103" vertex="1">
          <mxGeometry x="30" width="220" height="30" as="geometry">
            <mxRectangle width="220" height="30" as="alternateBounds" />
          </mxGeometry>
        </mxCell>
        <mxCell id="gLiJT_Oy5ucblzhfaL7l-106" value="" style="shape=partialRectangle;collapsible=0;dropTarget=0;pointerEvents=0;fillColor=none;points=[[0,0.5],[1,0.5]];portConstraint=eastwest;top=0;left=0;right=0;bottom=0;" parent="gLiJT_Oy5ucblzhfaL7l-102" vertex="1">
          <mxGeometry y="60" width="250" height="30" as="geometry" />
        </mxCell>
        <mxCell id="gLiJT_Oy5ucblzhfaL7l-107" value="" style="shape=partialRectangle;overflow=hidden;connectable=0;fillColor=none;top=0;left=0;bottom=0;right=0;" parent="gLiJT_Oy5ucblzhfaL7l-106" vertex="1">
          <mxGeometry width="30" height="30" as="geometry">
            <mxRectangle width="30" height="30" as="alternateBounds" />
          </mxGeometry>
        </mxCell>
        <mxCell id="gLiJT_Oy5ucblzhfaL7l-108" value="" style="shape=partialRectangle;overflow=hidden;connectable=0;fillColor=none;top=0;left=0;bottom=0;right=0;align=left;spacingLeft=6;" parent="gLiJT_Oy5ucblzhfaL7l-106" vertex="1">
          <mxGeometry x="30" width="220" height="30" as="geometry">
            <mxRectangle width="220" height="30" as="alternateBounds" />
          </mxGeometry>
        </mxCell>
        <mxCell id="gLiJT_Oy5ucblzhfaL7l-109" value="" style="shape=partialRectangle;collapsible=0;dropTarget=0;pointerEvents=0;fillColor=none;points=[[0,0.5],[1,0.5]];portConstraint=eastwest;top=0;left=0;right=0;bottom=0;" parent="gLiJT_Oy5ucblzhfaL7l-102" vertex="1">
          <mxGeometry y="90" width="250" height="30" as="geometry" />
        </mxCell>
        <mxCell id="gLiJT_Oy5ucblzhfaL7l-110" value="" style="shape=partialRectangle;overflow=hidden;connectable=0;fillColor=none;top=0;left=0;bottom=0;right=0;" parent="gLiJT_Oy5ucblzhfaL7l-109" vertex="1">
          <mxGeometry width="30" height="30" as="geometry">
            <mxRectangle width="30" height="30" as="alternateBounds" />
          </mxGeometry>
        </mxCell>
        <mxCell id="gLiJT_Oy5ucblzhfaL7l-111" value="" style="shape=partialRectangle;overflow=hidden;connectable=0;fillColor=none;top=0;left=0;bottom=0;right=0;align=left;spacingLeft=6;" parent="gLiJT_Oy5ucblzhfaL7l-109" vertex="1">
          <mxGeometry x="30" width="220" height="30" as="geometry">
            <mxRectangle width="220" height="30" as="alternateBounds" />
          </mxGeometry>
        </mxCell>
        <mxCell id="gLiJT_Oy5ucblzhfaL7l-112" value="department" style="shape=table;startSize=30;container=1;collapsible=1;childLayout=tableLayout;fixedRows=1;rowLines=0;fontStyle=1;align=center;resizeLast=1;fillColor=#dae8fc;strokeColor=#6c8ebf;" parent="1" vertex="1">
          <mxGeometry x="60" y="1340" width="250" height="190" as="geometry" />
        </mxCell>
        <mxCell id="gLiJT_Oy5ucblzhfaL7l-113" value="" style="shape=partialRectangle;collapsible=0;dropTarget=0;pointerEvents=0;fillColor=none;points=[[0,0.5],[1,0.5]];portConstraint=eastwest;top=0;left=0;right=0;bottom=1;" parent="gLiJT_Oy5ucblzhfaL7l-112" vertex="1">
          <mxGeometry y="30" width="250" height="30" as="geometry" />
        </mxCell>
        <mxCell id="gLiJT_Oy5ucblzhfaL7l-114" value="PK" style="shape=partialRectangle;overflow=hidden;connectable=0;fillColor=none;top=0;left=0;bottom=0;right=0;fontStyle=1;" parent="gLiJT_Oy5ucblzhfaL7l-113" vertex="1">
          <mxGeometry width="30" height="30" as="geometry">
            <mxRectangle width="30" height="30" as="alternateBounds" />
          </mxGeometry>
        </mxCell>
        <mxCell id="gLiJT_Oy5ucblzhfaL7l-115" value="id int NOT NULL " style="shape=partialRectangle;overflow=hidden;connectable=0;fillColor=none;top=0;left=0;bottom=0;right=0;align=left;spacingLeft=6;fontStyle=5;" parent="gLiJT_Oy5ucblzhfaL7l-113" vertex="1">
          <mxGeometry x="30" width="220" height="30" as="geometry">
            <mxRectangle width="220" height="30" as="alternateBounds" />
          </mxGeometry>
        </mxCell>
        <mxCell id="gLiJT_Oy5ucblzhfaL7l-116" value="" style="shape=partialRectangle;collapsible=0;dropTarget=0;pointerEvents=0;fillColor=none;points=[[0,0.5],[1,0.5]];portConstraint=eastwest;top=0;left=0;right=0;bottom=0;" parent="gLiJT_Oy5ucblzhfaL7l-112" vertex="1">
          <mxGeometry y="60" width="250" height="30" as="geometry" />
        </mxCell>
        <mxCell id="gLiJT_Oy5ucblzhfaL7l-117" value="" style="shape=partialRectangle;overflow=hidden;connectable=0;fillColor=none;top=0;left=0;bottom=0;right=0;" parent="gLiJT_Oy5ucblzhfaL7l-116" vertex="1">
          <mxGeometry width="30" height="30" as="geometry">
            <mxRectangle width="30" height="30" as="alternateBounds" />
          </mxGeometry>
        </mxCell>
        <mxCell id="gLiJT_Oy5ucblzhfaL7l-118" value="deptType int NOT NULL" style="shape=partialRectangle;overflow=hidden;connectable=0;fillColor=none;top=0;left=0;bottom=0;right=0;align=left;spacingLeft=6;" parent="gLiJT_Oy5ucblzhfaL7l-116" vertex="1">
          <mxGeometry x="30" width="220" height="30" as="geometry">
            <mxRectangle width="220" height="30" as="alternateBounds" />
          </mxGeometry>
        </mxCell>
        <mxCell id="gLiJT_Oy5ucblzhfaL7l-119" style="edgeStyle=orthogonalEdgeStyle;rounded=0;orthogonalLoop=1;jettySize=auto;html=1;exitX=1;exitY=0.5;exitDx=0;exitDy=0;entryX=0;entryY=0.5;entryDx=0;entryDy=0;fontSize=14;endArrow=none;endFill=0;" parent="1" source="gLiJT_Oy5ucblzhfaL7l-113" target="gLiJT_Oy5ucblzhfaL7l-96" edge="1">
          <mxGeometry relative="1" as="geometry" />
        </mxCell>
        <mxCell id="gLiJT_Oy5ucblzhfaL7l-120" value="deptNo VARCHAR(50) " style="shape=partialRectangle;overflow=hidden;connectable=0;fillColor=none;top=0;left=0;bottom=0;right=0;align=left;spacingLeft=6;" parent="1" vertex="1">
          <mxGeometry x="90" y="1420" width="210" height="30" as="geometry">
            <mxRectangle width="220" height="30" as="alternateBounds" />
          </mxGeometry>
        </mxCell>
        <mxCell id="gLiJT_Oy5ucblzhfaL7l-121" value="deptName VARCHAR(50)  NOT NULL" style="shape=partialRectangle;overflow=hidden;connectable=0;fillColor=none;top=0;left=0;bottom=0;right=0;align=left;spacingLeft=6;" parent="1" vertex="1">
          <mxGeometry x="90" y="1440" width="210" height="30" as="geometry">
            <mxRectangle width="220" height="30" as="alternateBounds" />
          </mxGeometry>
        </mxCell>
        <mxCell id="gLiJT_Oy5ucblzhfaL7l-122" value="deptLvl TINYINT" style="shape=partialRectangle;overflow=hidden;connectable=0;fillColor=none;top=0;left=0;bottom=0;right=0;align=left;spacingLeft=6;" parent="1" vertex="1">
          <mxGeometry x="90" y="1460" width="210" height="30" as="geometry">
            <mxRectangle width="220" height="30" as="alternateBounds" />
          </mxGeometry>
        </mxCell>
        <mxCell id="gLiJT_Oy5ucblzhfaL7l-123" value="pid int NOT NULL" style="shape=partialRectangle;overflow=hidden;connectable=0;fillColor=none;top=0;left=0;bottom=0;right=0;align=left;spacingLeft=6;" parent="1" vertex="1">
          <mxGeometry x="90" y="1480" width="210" height="30" as="geometry">
            <mxRectangle width="220" height="30" as="alternateBounds" />
          </mxGeometry>
        </mxCell>
        <mxCell id="gLiJT_Oy5ucblzhfaL7l-124" value="pids VARCHAR(50)   NOT NULL" style="shape=partialRectangle;overflow=hidden;connectable=0;fillColor=none;top=0;left=0;bottom=0;right=0;align=left;spacingLeft=6;" parent="1" vertex="1">
          <mxGeometry x="90" y="1500" width="210" height="30" as="geometry">
            <mxRectangle width="220" height="30" as="alternateBounds" />
          </mxGeometry>
        </mxCell>
        <mxCell id="gLiJT_Oy5ucblzhfaL7l-125" value="deptId int NOT NULL" style="shape=partialRectangle;overflow=hidden;connectable=0;fillColor=none;top=0;left=0;bottom=0;right=0;align=left;spacingLeft=6;" parent="1" vertex="1">
          <mxGeometry x="420" y="1400" width="220" height="30" as="geometry">
            <mxRectangle width="220" height="30" as="alternateBounds" />
          </mxGeometry>
        </mxCell>
        <mxCell id="gLiJT_Oy5ucblzhfaL7l-126" value="employeeId int NOT NULL " style="shape=partialRectangle;overflow=hidden;connectable=0;fillColor=none;top=0;left=0;bottom=0;right=0;align=left;spacingLeft=6;" parent="1" vertex="1">
          <mxGeometry x="420" y="1420" width="210" height="30" as="geometry">
            <mxRectangle width="220" height="30" as="alternateBounds" />
          </mxGeometry>
        </mxCell>
        <mxCell id="gLiJT_Oy5ucblzhfaL7l-127" value="isManager TINYINT" style="shape=partialRectangle;overflow=hidden;connectable=0;fillColor=none;top=0;left=0;bottom=0;right=0;align=left;spacingLeft=6;" parent="1" vertex="1">
          <mxGeometry x="420" y="1440" width="210" height="30" as="geometry">
            <mxRectangle width="220" height="30" as="alternateBounds" />
          </mxGeometry>
        </mxCell>
        <mxCell id="gLiJT_Oy5ucblzhfaL7l-129" value="id int NOT NULL" style="shape=partialRectangle;overflow=hidden;connectable=0;fillColor=none;top=0;left=0;bottom=0;right=0;align=left;spacingLeft=6;fontStyle=5;" parent="1" vertex="1">
          <mxGeometry x="770" y="1370" width="220" height="30" as="geometry">
            <mxRectangle width="220" height="30" as="alternateBounds" />
          </mxGeometry>
        </mxCell>
        <mxCell id="gLiJT_Oy5ucblzhfaL7l-130" value="employeeNo VARCHAR(50) " style="shape=partialRectangle;overflow=hidden;connectable=0;fillColor=none;top=0;left=0;bottom=0;right=0;align=left;spacingLeft=6;" parent="1" vertex="1">
          <mxGeometry x="770" y="1400" width="220" height="30" as="geometry">
            <mxRectangle width="220" height="30" as="alternateBounds" />
          </mxGeometry>
        </mxCell>
        <mxCell id="gLiJT_Oy5ucblzhfaL7l-131" value="employeeName VARCHAR(50) " style="shape=partialRectangle;overflow=hidden;connectable=0;fillColor=none;top=0;left=0;bottom=0;right=0;align=left;spacingLeft=6;" parent="1" vertex="1">
          <mxGeometry x="770" y="1420" width="210" height="30" as="geometry">
            <mxRectangle width="220" height="30" as="alternateBounds" />
          </mxGeometry>
        </mxCell>
        <mxCell id="gLiJT_Oy5ucblzhfaL7l-132" value="phone TINYINT" style="shape=partialRectangle;overflow=hidden;connectable=0;fillColor=none;top=0;left=0;bottom=0;right=0;align=left;spacingLeft=6;" parent="1" vertex="1">
          <mxGeometry x="770" y="1440" width="210" height="30" as="geometry">
            <mxRectangle width="220" height="30" as="alternateBounds" />
          </mxGeometry>
        </mxCell>
        <mxCell id="gLiJT_Oy5ucblzhfaL7l-133" value="email int NOT NULL" style="shape=partialRectangle;overflow=hidden;connectable=0;fillColor=none;top=0;left=0;bottom=0;right=0;align=left;spacingLeft=6;" parent="1" vertex="1">
          <mxGeometry x="770" y="1460" width="210" height="30" as="geometry">
            <mxRectangle width="220" height="30" as="alternateBounds" />
          </mxGeometry>
        </mxCell>
        <mxCell id="gLiJT_Oy5ucblzhfaL7l-135" style="edgeStyle=orthogonalEdgeStyle;rounded=0;orthogonalLoop=1;jettySize=auto;html=1;exitX=1;exitY=0.5;exitDx=0;exitDy=0;entryX=0;entryY=0.5;entryDx=0;entryDy=0;fontSize=14;endArrow=none;endFill=0;" parent="1" source="gLiJT_Oy5ucblzhfaL7l-99" target="gLiJT_Oy5ucblzhfaL7l-103" edge="1">
          <mxGeometry relative="1" as="geometry">
            <Array as="points">
              <mxPoint x="640" y="1430" />
              <mxPoint x="690" y="1430" />
              <mxPoint x="690" y="1385" />
            </Array>
          </mxGeometry>
        </mxCell>
        <mxCell id="gLiJT_Oy5ucblzhfaL7l-136" value="employee_post" style="shape=table;startSize=30;container=1;collapsible=1;childLayout=tableLayout;fixedRows=1;rowLines=0;fontStyle=1;align=center;resizeLast=1;fillColor=#dae8fc;strokeColor=#6c8ebf;" parent="1" vertex="1">
          <mxGeometry x="1090" y="1340" width="250" height="120" as="geometry" />
        </mxCell>
        <mxCell id="gLiJT_Oy5ucblzhfaL7l-137" value="" style="shape=partialRectangle;collapsible=0;dropTarget=0;pointerEvents=0;fillColor=none;points=[[0,0.5],[1,0.5]];portConstraint=eastwest;top=0;left=0;right=0;bottom=1;" parent="gLiJT_Oy5ucblzhfaL7l-136" vertex="1">
          <mxGeometry y="30" width="250" height="30" as="geometry" />
        </mxCell>
        <mxCell id="gLiJT_Oy5ucblzhfaL7l-138" value="PK" style="shape=partialRectangle;overflow=hidden;connectable=0;fillColor=none;top=0;left=0;bottom=0;right=0;fontStyle=1;" parent="gLiJT_Oy5ucblzhfaL7l-137" vertex="1">
          <mxGeometry width="30" height="30" as="geometry">
            <mxRectangle width="30" height="30" as="alternateBounds" />
          </mxGeometry>
        </mxCell>
        <mxCell id="gLiJT_Oy5ucblzhfaL7l-139" value="id int NOT NULL" style="shape=partialRectangle;overflow=hidden;connectable=0;fillColor=none;top=0;left=0;bottom=0;right=0;align=left;spacingLeft=6;fontStyle=5;" parent="gLiJT_Oy5ucblzhfaL7l-137" vertex="1">
          <mxGeometry x="30" width="220" height="30" as="geometry">
            <mxRectangle width="220" height="30" as="alternateBounds" />
          </mxGeometry>
        </mxCell>
        <mxCell id="gLiJT_Oy5ucblzhfaL7l-140" value="" style="shape=partialRectangle;collapsible=0;dropTarget=0;pointerEvents=0;fillColor=none;points=[[0,0.5],[1,0.5]];portConstraint=eastwest;top=0;left=0;right=0;bottom=0;" parent="gLiJT_Oy5ucblzhfaL7l-136" vertex="1">
          <mxGeometry y="60" width="250" height="30" as="geometry" />
        </mxCell>
        <mxCell id="gLiJT_Oy5ucblzhfaL7l-141" value="" style="shape=partialRectangle;overflow=hidden;connectable=0;fillColor=none;top=0;left=0;bottom=0;right=0;" parent="gLiJT_Oy5ucblzhfaL7l-140" vertex="1">
          <mxGeometry width="30" height="30" as="geometry">
            <mxRectangle width="30" height="30" as="alternateBounds" />
          </mxGeometry>
        </mxCell>
        <mxCell id="gLiJT_Oy5ucblzhfaL7l-142" value="" style="shape=partialRectangle;overflow=hidden;connectable=0;fillColor=none;top=0;left=0;bottom=0;right=0;align=left;spacingLeft=6;" parent="gLiJT_Oy5ucblzhfaL7l-140" vertex="1">
          <mxGeometry x="30" width="220" height="30" as="geometry">
            <mxRectangle width="220" height="30" as="alternateBounds" />
          </mxGeometry>
        </mxCell>
        <mxCell id="gLiJT_Oy5ucblzhfaL7l-143" value="" style="shape=partialRectangle;collapsible=0;dropTarget=0;pointerEvents=0;fillColor=none;points=[[0,0.5],[1,0.5]];portConstraint=eastwest;top=0;left=0;right=0;bottom=0;" parent="gLiJT_Oy5ucblzhfaL7l-136" vertex="1">
          <mxGeometry y="90" width="250" height="30" as="geometry" />
        </mxCell>
        <mxCell id="gLiJT_Oy5ucblzhfaL7l-144" value="" style="shape=partialRectangle;overflow=hidden;connectable=0;fillColor=none;top=0;left=0;bottom=0;right=0;" parent="gLiJT_Oy5ucblzhfaL7l-143" vertex="1">
          <mxGeometry width="30" height="30" as="geometry">
            <mxRectangle width="30" height="30" as="alternateBounds" />
          </mxGeometry>
        </mxCell>
        <mxCell id="gLiJT_Oy5ucblzhfaL7l-145" value="" style="shape=partialRectangle;overflow=hidden;connectable=0;fillColor=none;top=0;left=0;bottom=0;right=0;align=left;spacingLeft=6;" parent="gLiJT_Oy5ucblzhfaL7l-143" vertex="1">
          <mxGeometry x="30" width="220" height="30" as="geometry">
            <mxRectangle width="220" height="30" as="alternateBounds" />
          </mxGeometry>
        </mxCell>
        <mxCell id="gLiJT_Oy5ucblzhfaL7l-146" value="position" style="shape=table;startSize=30;container=1;collapsible=1;childLayout=tableLayout;fixedRows=1;rowLines=0;fontStyle=1;align=center;resizeLast=1;fillColor=#dae8fc;strokeColor=#6c8ebf;" parent="1" vertex="1">
          <mxGeometry x="1090" y="1610" width="250" height="130" as="geometry" />
        </mxCell>
        <mxCell id="gLiJT_Oy5ucblzhfaL7l-147" value="" style="shape=partialRectangle;collapsible=0;dropTarget=0;pointerEvents=0;fillColor=none;points=[[0,0.5],[1,0.5]];portConstraint=eastwest;top=0;left=0;right=0;bottom=1;" parent="gLiJT_Oy5ucblzhfaL7l-146" vertex="1">
          <mxGeometry y="30" width="250" height="30" as="geometry" />
        </mxCell>
        <mxCell id="gLiJT_Oy5ucblzhfaL7l-148" value="PK" style="shape=partialRectangle;overflow=hidden;connectable=0;fillColor=none;top=0;left=0;bottom=0;right=0;fontStyle=1;" parent="gLiJT_Oy5ucblzhfaL7l-147" vertex="1">
          <mxGeometry width="30" height="30" as="geometry">
            <mxRectangle width="30" height="30" as="alternateBounds" />
          </mxGeometry>
        </mxCell>
        <mxCell id="gLiJT_Oy5ucblzhfaL7l-149" value="id int NOT NULL " style="shape=partialRectangle;overflow=hidden;connectable=0;fillColor=none;top=0;left=0;bottom=0;right=0;align=left;spacingLeft=6;fontStyle=5;" parent="gLiJT_Oy5ucblzhfaL7l-147" vertex="1">
          <mxGeometry x="30" width="220" height="30" as="geometry">
            <mxRectangle width="220" height="30" as="alternateBounds" />
          </mxGeometry>
        </mxCell>
        <mxCell id="gLiJT_Oy5ucblzhfaL7l-150" value="" style="shape=partialRectangle;collapsible=0;dropTarget=0;pointerEvents=0;fillColor=none;points=[[0,0.5],[1,0.5]];portConstraint=eastwest;top=0;left=0;right=0;bottom=0;" parent="gLiJT_Oy5ucblzhfaL7l-146" vertex="1">
          <mxGeometry y="60" width="250" height="30" as="geometry" />
        </mxCell>
        <mxCell id="gLiJT_Oy5ucblzhfaL7l-151" value="" style="shape=partialRectangle;overflow=hidden;connectable=0;fillColor=none;top=0;left=0;bottom=0;right=0;" parent="gLiJT_Oy5ucblzhfaL7l-150" vertex="1">
          <mxGeometry width="30" height="30" as="geometry">
            <mxRectangle width="30" height="30" as="alternateBounds" />
          </mxGeometry>
        </mxCell>
        <mxCell id="gLiJT_Oy5ucblzhfaL7l-152" value="postName VARCHAR(50)  NOT NULL" style="shape=partialRectangle;overflow=hidden;connectable=0;fillColor=none;top=0;left=0;bottom=0;right=0;align=left;spacingLeft=6;" parent="gLiJT_Oy5ucblzhfaL7l-150" vertex="1">
          <mxGeometry x="30" width="220" height="30" as="geometry">
            <mxRectangle width="220" height="30" as="alternateBounds" />
          </mxGeometry>
        </mxCell>
        <mxCell id="gLiJT_Oy5ucblzhfaL7l-154" value="flag TINYINT NOT NULL" style="shape=partialRectangle;overflow=hidden;connectable=0;fillColor=none;top=0;left=0;bottom=0;right=0;align=left;spacingLeft=6;" parent="1" vertex="1">
          <mxGeometry x="1120" y="1690" width="210" height="30" as="geometry">
            <mxRectangle width="220" height="30" as="alternateBounds" />
          </mxGeometry>
        </mxCell>
        <mxCell id="gLiJT_Oy5ucblzhfaL7l-159" value="postId int NOT NULL" style="shape=partialRectangle;overflow=hidden;connectable=0;fillColor=none;top=0;left=0;bottom=0;right=0;align=left;spacingLeft=6;" parent="1" vertex="1">
          <mxGeometry x="1120" y="1400" width="220" height="30" as="geometry">
            <mxRectangle width="220" height="30" as="alternateBounds" />
          </mxGeometry>
        </mxCell>
        <mxCell id="gLiJT_Oy5ucblzhfaL7l-160" value="employeeId int NOT NULL " style="shape=partialRectangle;overflow=hidden;connectable=0;fillColor=none;top=0;left=0;bottom=0;right=0;align=left;spacingLeft=6;" parent="1" vertex="1">
          <mxGeometry x="1120" y="1420" width="210" height="30" as="geometry">
            <mxRectangle width="220" height="30" as="alternateBounds" />
          </mxGeometry>
        </mxCell>
        <mxCell id="gLiJT_Oy5ucblzhfaL7l-163" style="edgeStyle=orthogonalEdgeStyle;rounded=0;orthogonalLoop=1;jettySize=auto;html=1;exitX=0;exitY=0.5;exitDx=0;exitDy=0;fontSize=14;endArrow=none;endFill=0;" parent="1" source="gLiJT_Oy5ucblzhfaL7l-143" edge="1">
          <mxGeometry relative="1" as="geometry">
            <mxPoint x="990" y="1380" as="targetPoint" />
            <Array as="points">
              <mxPoint x="1090" y="1440" />
              <mxPoint x="1030" y="1440" />
              <mxPoint x="1030" y="1380" />
            </Array>
          </mxGeometry>
        </mxCell>
        <mxCell id="gLiJT_Oy5ucblzhfaL7l-164" style="edgeStyle=orthogonalEdgeStyle;rounded=0;orthogonalLoop=1;jettySize=auto;html=1;exitX=0;exitY=0.5;exitDx=0;exitDy=0;fontSize=14;endArrow=none;endFill=0;" parent="1" source="gLiJT_Oy5ucblzhfaL7l-147" edge="1">
          <mxGeometry relative="1" as="geometry">
            <mxPoint x="1340" y="1410" as="targetPoint" />
            <Array as="points">
              <mxPoint x="1070" y="1655" />
              <mxPoint x="1070" y="1525" />
              <mxPoint x="1360" y="1525" />
              <mxPoint x="1360" y="1410" />
            </Array>
          </mxGeometry>
        </mxCell>
        <mxCell id="gLiJT_Oy5ucblzhfaL7l-214" style="edgeStyle=orthogonalEdgeStyle;rounded=0;orthogonalLoop=1;jettySize=auto;html=1;exitX=1;exitY=0.75;exitDx=0;exitDy=0;fontSize=14;endArrow=none;endFill=0;" parent="1" source="gLiJT_Oy5ucblzhfaL7l-185" edge="1">
          <mxGeometry relative="1" as="geometry">
            <mxPoint x="990" y="1380" as="targetPoint" />
            <Array as="points">
              <mxPoint x="1000" y="1720" />
              <mxPoint x="1020" y="1720" />
              <mxPoint x="1020" y="1390" />
              <mxPoint x="990" y="1390" />
            </Array>
          </mxGeometry>
        </mxCell>
        <mxCell id="gLiJT_Oy5ucblzhfaL7l-185" value="sign_account" style="shape=table;startSize=30;container=1;collapsible=1;childLayout=tableLayout;fixedRows=1;rowLines=0;fontStyle=1;align=center;resizeLast=1;fillColor=#dae8fc;strokeColor=#6c8ebf;" parent="1" vertex="1">
          <mxGeometry x="750" y="1585" width="250" height="160" as="geometry" />
        </mxCell>
        <mxCell id="gLiJT_Oy5ucblzhfaL7l-186" value="" style="shape=partialRectangle;collapsible=0;dropTarget=0;pointerEvents=0;fillColor=none;points=[[0,0.5],[1,0.5]];portConstraint=eastwest;top=0;left=0;right=0;bottom=1;" parent="gLiJT_Oy5ucblzhfaL7l-185" vertex="1">
          <mxGeometry y="30" width="250" height="30" as="geometry" />
        </mxCell>
        <mxCell id="gLiJT_Oy5ucblzhfaL7l-187" value="PK" style="shape=partialRectangle;overflow=hidden;connectable=0;fillColor=none;top=0;left=0;bottom=0;right=0;fontStyle=1;" parent="gLiJT_Oy5ucblzhfaL7l-186" vertex="1">
          <mxGeometry width="30" height="30" as="geometry">
            <mxRectangle width="30" height="30" as="alternateBounds" />
          </mxGeometry>
        </mxCell>
        <mxCell id="gLiJT_Oy5ucblzhfaL7l-188" value="" style="shape=partialRectangle;overflow=hidden;connectable=0;fillColor=none;top=0;left=0;bottom=0;right=0;align=left;spacingLeft=6;fontStyle=5;" parent="gLiJT_Oy5ucblzhfaL7l-186" vertex="1">
          <mxGeometry x="30" width="220" height="30" as="geometry">
            <mxRectangle width="220" height="30" as="alternateBounds" />
          </mxGeometry>
        </mxCell>
        <mxCell id="gLiJT_Oy5ucblzhfaL7l-189" value="" style="shape=partialRectangle;collapsible=0;dropTarget=0;pointerEvents=0;fillColor=none;points=[[0,0.5],[1,0.5]];portConstraint=eastwest;top=0;left=0;right=0;bottom=0;" parent="gLiJT_Oy5ucblzhfaL7l-185" vertex="1">
          <mxGeometry y="60" width="250" height="30" as="geometry" />
        </mxCell>
        <mxCell id="gLiJT_Oy5ucblzhfaL7l-190" value="" style="shape=partialRectangle;overflow=hidden;connectable=0;fillColor=none;top=0;left=0;bottom=0;right=0;" parent="gLiJT_Oy5ucblzhfaL7l-189" vertex="1">
          <mxGeometry width="30" height="30" as="geometry">
            <mxRectangle width="30" height="30" as="alternateBounds" />
          </mxGeometry>
        </mxCell>
        <mxCell id="gLiJT_Oy5ucblzhfaL7l-191" value="" style="shape=partialRectangle;overflow=hidden;connectable=0;fillColor=none;top=0;left=0;bottom=0;right=0;align=left;spacingLeft=6;" parent="gLiJT_Oy5ucblzhfaL7l-189" vertex="1">
          <mxGeometry x="30" width="220" height="30" as="geometry">
            <mxRectangle width="220" height="30" as="alternateBounds" />
          </mxGeometry>
        </mxCell>
        <mxCell id="gLiJT_Oy5ucblzhfaL7l-192" value="" style="shape=partialRectangle;collapsible=0;dropTarget=0;pointerEvents=0;fillColor=none;points=[[0,0.5],[1,0.5]];portConstraint=eastwest;top=0;left=0;right=0;bottom=0;" parent="gLiJT_Oy5ucblzhfaL7l-185" vertex="1">
          <mxGeometry y="90" width="250" height="30" as="geometry" />
        </mxCell>
        <mxCell id="gLiJT_Oy5ucblzhfaL7l-193" value="" style="shape=partialRectangle;overflow=hidden;connectable=0;fillColor=none;top=0;left=0;bottom=0;right=0;" parent="gLiJT_Oy5ucblzhfaL7l-192" vertex="1">
          <mxGeometry width="30" height="30" as="geometry">
            <mxRectangle width="30" height="30" as="alternateBounds" />
          </mxGeometry>
        </mxCell>
        <mxCell id="gLiJT_Oy5ucblzhfaL7l-194" value="" style="shape=partialRectangle;overflow=hidden;connectable=0;fillColor=none;top=0;left=0;bottom=0;right=0;align=left;spacingLeft=6;" parent="gLiJT_Oy5ucblzhfaL7l-192" vertex="1">
          <mxGeometry x="30" width="220" height="30" as="geometry">
            <mxRectangle width="220" height="30" as="alternateBounds" />
          </mxGeometry>
        </mxCell>
        <mxCell id="gLiJT_Oy5ucblzhfaL7l-195" value="id int NOT NULL" style="shape=partialRectangle;overflow=hidden;connectable=0;fillColor=none;top=0;left=0;bottom=0;right=0;align=left;spacingLeft=6;fontStyle=5;" parent="1" vertex="1">
          <mxGeometry x="780" y="1615" width="220" height="30" as="geometry">
            <mxRectangle width="220" height="30" as="alternateBounds" />
          </mxGeometry>
        </mxCell>
        <mxCell id="gLiJT_Oy5ucblzhfaL7l-196" value="accountName VARCHAR(50) " style="shape=partialRectangle;overflow=hidden;connectable=0;fillColor=none;top=0;left=0;bottom=0;right=0;align=left;spacingLeft=6;" parent="1" vertex="1">
          <mxGeometry x="780" y="1645" width="220" height="30" as="geometry">
            <mxRectangle width="220" height="30" as="alternateBounds" />
          </mxGeometry>
        </mxCell>
        <mxCell id="gLiJT_Oy5ucblzhfaL7l-197" value="password VARCHAR(50) " style="shape=partialRectangle;overflow=hidden;connectable=0;fillColor=none;top=0;left=0;bottom=0;right=0;align=left;spacingLeft=6;" parent="1" vertex="1">
          <mxGeometry x="780" y="1665" width="210" height="30" as="geometry">
            <mxRectangle width="220" height="30" as="alternateBounds" />
          </mxGeometry>
        </mxCell>
        <mxCell id="gLiJT_Oy5ucblzhfaL7l-198" value="flag TINYINT" style="shape=partialRectangle;overflow=hidden;connectable=0;fillColor=none;top=0;left=0;bottom=0;right=0;align=left;spacingLeft=6;" parent="1" vertex="1">
          <mxGeometry x="780" y="1685" width="210" height="30" as="geometry">
            <mxRectangle width="220" height="30" as="alternateBounds" />
          </mxGeometry>
        </mxCell>
        <mxCell id="gLiJT_Oy5ucblzhfaL7l-199" value="employeeId int" style="shape=partialRectangle;overflow=hidden;connectable=0;fillColor=none;top=0;left=0;bottom=0;right=0;align=left;spacingLeft=6;" parent="1" vertex="1">
          <mxGeometry x="780" y="1705" width="210" height="30" as="geometry">
            <mxRectangle width="220" height="30" as="alternateBounds" />
          </mxGeometry>
        </mxCell>
        <mxCell id="gLiJT_Oy5ucblzhfaL7l-200" value="account_role" style="shape=table;startSize=30;container=1;collapsible=1;childLayout=tableLayout;fixedRows=1;rowLines=0;fontStyle=1;align=center;resizeLast=1;fillColor=#dae8fc;strokeColor=#6c8ebf;" parent="1" vertex="1">
          <mxGeometry x="380" y="1585" width="250" height="120" as="geometry" />
        </mxCell>
        <mxCell id="gLiJT_Oy5ucblzhfaL7l-201" value="" style="shape=partialRectangle;collapsible=0;dropTarget=0;pointerEvents=0;fillColor=none;points=[[0,0.5],[1,0.5]];portConstraint=eastwest;top=0;left=0;right=0;bottom=1;" parent="gLiJT_Oy5ucblzhfaL7l-200" vertex="1">
          <mxGeometry y="30" width="250" height="30" as="geometry" />
        </mxCell>
        <mxCell id="gLiJT_Oy5ucblzhfaL7l-202" value="PK" style="shape=partialRectangle;overflow=hidden;connectable=0;fillColor=none;top=0;left=0;bottom=0;right=0;fontStyle=1;" parent="gLiJT_Oy5ucblzhfaL7l-201" vertex="1">
          <mxGeometry width="30" height="30" as="geometry">
            <mxRectangle width="30" height="30" as="alternateBounds" />
          </mxGeometry>
        </mxCell>
        <mxCell id="gLiJT_Oy5ucblzhfaL7l-203" value="id int NOT NULL" style="shape=partialRectangle;overflow=hidden;connectable=0;fillColor=none;top=0;left=0;bottom=0;right=0;align=left;spacingLeft=6;fontStyle=5;" parent="gLiJT_Oy5ucblzhfaL7l-201" vertex="1">
          <mxGeometry x="30" width="220" height="30" as="geometry">
            <mxRectangle width="220" height="30" as="alternateBounds" />
          </mxGeometry>
        </mxCell>
        <mxCell id="gLiJT_Oy5ucblzhfaL7l-204" value="" style="shape=partialRectangle;collapsible=0;dropTarget=0;pointerEvents=0;fillColor=none;points=[[0,0.5],[1,0.5]];portConstraint=eastwest;top=0;left=0;right=0;bottom=0;" parent="gLiJT_Oy5ucblzhfaL7l-200" vertex="1">
          <mxGeometry y="60" width="250" height="30" as="geometry" />
        </mxCell>
        <mxCell id="gLiJT_Oy5ucblzhfaL7l-205" value="" style="shape=partialRectangle;overflow=hidden;connectable=0;fillColor=none;top=0;left=0;bottom=0;right=0;" parent="gLiJT_Oy5ucblzhfaL7l-204" vertex="1">
          <mxGeometry width="30" height="30" as="geometry">
            <mxRectangle width="30" height="30" as="alternateBounds" />
          </mxGeometry>
        </mxCell>
        <mxCell id="gLiJT_Oy5ucblzhfaL7l-206" value="" style="shape=partialRectangle;overflow=hidden;connectable=0;fillColor=none;top=0;left=0;bottom=0;right=0;align=left;spacingLeft=6;" parent="gLiJT_Oy5ucblzhfaL7l-204" vertex="1">
          <mxGeometry x="30" width="220" height="30" as="geometry">
            <mxRectangle width="220" height="30" as="alternateBounds" />
          </mxGeometry>
        </mxCell>
        <mxCell id="gLiJT_Oy5ucblzhfaL7l-207" value="" style="shape=partialRectangle;collapsible=0;dropTarget=0;pointerEvents=0;fillColor=none;points=[[0,0.5],[1,0.5]];portConstraint=eastwest;top=0;left=0;right=0;bottom=0;" parent="gLiJT_Oy5ucblzhfaL7l-200" vertex="1">
          <mxGeometry y="90" width="250" height="30" as="geometry" />
        </mxCell>
        <mxCell id="gLiJT_Oy5ucblzhfaL7l-208" value="" style="shape=partialRectangle;overflow=hidden;connectable=0;fillColor=none;top=0;left=0;bottom=0;right=0;" parent="gLiJT_Oy5ucblzhfaL7l-207" vertex="1">
          <mxGeometry width="30" height="30" as="geometry">
            <mxRectangle width="30" height="30" as="alternateBounds" />
          </mxGeometry>
        </mxCell>
        <mxCell id="gLiJT_Oy5ucblzhfaL7l-209" value="" style="shape=partialRectangle;overflow=hidden;connectable=0;fillColor=none;top=0;left=0;bottom=0;right=0;align=left;spacingLeft=6;" parent="gLiJT_Oy5ucblzhfaL7l-207" vertex="1">
          <mxGeometry x="30" width="220" height="30" as="geometry">
            <mxRectangle width="220" height="30" as="alternateBounds" />
          </mxGeometry>
        </mxCell>
        <mxCell id="gLiJT_Oy5ucblzhfaL7l-210" value="accountId int NOT NULL" style="shape=partialRectangle;overflow=hidden;connectable=0;fillColor=none;top=0;left=0;bottom=0;right=0;align=left;spacingLeft=6;" parent="1" vertex="1">
          <mxGeometry x="410" y="1645" width="220" height="30" as="geometry">
            <mxRectangle width="220" height="30" as="alternateBounds" />
          </mxGeometry>
        </mxCell>
        <mxCell id="gLiJT_Oy5ucblzhfaL7l-211" value="roleId int NOT NULL " style="shape=partialRectangle;overflow=hidden;connectable=0;fillColor=none;top=0;left=0;bottom=0;right=0;align=left;spacingLeft=6;" parent="1" vertex="1">
          <mxGeometry x="410" y="1665" width="210" height="30" as="geometry">
            <mxRectangle width="220" height="30" as="alternateBounds" />
          </mxGeometry>
        </mxCell>
        <mxCell id="gLiJT_Oy5ucblzhfaL7l-213" style="edgeStyle=orthogonalEdgeStyle;rounded=0;orthogonalLoop=1;jettySize=auto;html=1;entryX=0;entryY=0.5;entryDx=0;entryDy=0;fontSize=14;endArrow=none;endFill=0;" parent="1" target="gLiJT_Oy5ucblzhfaL7l-186" edge="1">
          <mxGeometry relative="1" as="geometry">
            <mxPoint x="630" y="1660" as="sourcePoint" />
            <Array as="points">
              <mxPoint x="660" y="1660" />
              <mxPoint x="660" y="1630" />
            </Array>
          </mxGeometry>
        </mxCell>
        <mxCell id="gLiJT_Oy5ucblzhfaL7l-215" value="role" style="shape=table;startSize=30;container=1;collapsible=1;childLayout=tableLayout;fixedRows=1;rowLines=0;fontStyle=1;align=center;resizeLast=1;fillColor=#dae8fc;strokeColor=#6c8ebf;" parent="1" vertex="1">
          <mxGeometry x="60" y="1585" width="250" height="115" as="geometry">
            <mxRectangle x="60" y="1585" width="50" height="30" as="alternateBounds" />
          </mxGeometry>
        </mxCell>
        <mxCell id="gLiJT_Oy5ucblzhfaL7l-216" value="" style="shape=partialRectangle;collapsible=0;dropTarget=0;pointerEvents=0;fillColor=none;points=[[0,0.5],[1,0.5]];portConstraint=eastwest;top=0;left=0;right=0;bottom=1;" parent="gLiJT_Oy5ucblzhfaL7l-215" vertex="1">
          <mxGeometry y="30" width="250" height="30" as="geometry" />
        </mxCell>
        <mxCell id="gLiJT_Oy5ucblzhfaL7l-217" value="PK" style="shape=partialRectangle;overflow=hidden;connectable=0;fillColor=none;top=0;left=0;bottom=0;right=0;fontStyle=1;" parent="gLiJT_Oy5ucblzhfaL7l-216" vertex="1">
          <mxGeometry width="30" height="30" as="geometry">
            <mxRectangle width="30" height="30" as="alternateBounds" />
          </mxGeometry>
        </mxCell>
        <mxCell id="gLiJT_Oy5ucblzhfaL7l-218" value="id int NOT NULL " style="shape=partialRectangle;overflow=hidden;connectable=0;fillColor=none;top=0;left=0;bottom=0;right=0;align=left;spacingLeft=6;fontStyle=5;" parent="gLiJT_Oy5ucblzhfaL7l-216" vertex="1">
          <mxGeometry x="30" width="220" height="30" as="geometry">
            <mxRectangle width="220" height="30" as="alternateBounds" />
          </mxGeometry>
        </mxCell>
        <mxCell id="gLiJT_Oy5ucblzhfaL7l-219" value="" style="shape=partialRectangle;collapsible=0;dropTarget=0;pointerEvents=0;fillColor=none;points=[[0,0.5],[1,0.5]];portConstraint=eastwest;top=0;left=0;right=0;bottom=0;" parent="gLiJT_Oy5ucblzhfaL7l-215" vertex="1">
          <mxGeometry y="60" width="250" height="30" as="geometry" />
        </mxCell>
        <mxCell id="gLiJT_Oy5ucblzhfaL7l-220" value="" style="shape=partialRectangle;overflow=hidden;connectable=0;fillColor=none;top=0;left=0;bottom=0;right=0;" parent="gLiJT_Oy5ucblzhfaL7l-219" vertex="1">
          <mxGeometry width="30" height="30" as="geometry">
            <mxRectangle width="30" height="30" as="alternateBounds" />
          </mxGeometry>
        </mxCell>
        <mxCell id="gLiJT_Oy5ucblzhfaL7l-221" value="roleType int NOT NULL" style="shape=partialRectangle;overflow=hidden;connectable=0;fillColor=none;top=0;left=0;bottom=0;right=0;align=left;spacingLeft=6;" parent="gLiJT_Oy5ucblzhfaL7l-219" vertex="1">
          <mxGeometry x="30" width="220" height="30" as="geometry">
            <mxRectangle width="220" height="30" as="alternateBounds" />
          </mxGeometry>
        </mxCell>
        <mxCell id="gLiJT_Oy5ucblzhfaL7l-222" value="roleName VARCHAR(50) " style="shape=partialRectangle;overflow=hidden;connectable=0;fillColor=none;top=0;left=0;bottom=0;right=0;align=left;spacingLeft=6;" parent="1" vertex="1">
          <mxGeometry x="90" y="1665" width="210" height="30" as="geometry">
            <mxRectangle width="220" height="30" as="alternateBounds" />
          </mxGeometry>
        </mxCell>
        <mxCell id="gLiJT_Oy5ucblzhfaL7l-227" value="roleType int NOT NULL" style="shape=partialRectangle;overflow=hidden;connectable=0;fillColor=none;top=0;left=0;bottom=0;right=0;align=left;spacingLeft=6;" parent="1" vertex="1">
          <mxGeometry x="1120" y="1710" width="220" height="30" as="geometry">
            <mxRectangle width="220" height="30" as="alternateBounds" />
          </mxGeometry>
        </mxCell>
        <mxCell id="gLiJT_Oy5ucblzhfaL7l-228" style="edgeStyle=orthogonalEdgeStyle;rounded=0;orthogonalLoop=1;jettySize=auto;html=1;exitX=1;exitY=0.5;exitDx=0;exitDy=0;entryX=-0.008;entryY=0.133;entryDx=0;entryDy=0;entryPerimeter=0;fontSize=14;endArrow=none;endFill=0;" parent="1" source="gLiJT_Oy5ucblzhfaL7l-216" target="gLiJT_Oy5ucblzhfaL7l-207" edge="1">
          <mxGeometry relative="1" as="geometry" />
        </mxCell>
        <mxCell id="gLiJT_Oy5ucblzhfaL7l-250" value="authorityfunc" style="shape=table;startSize=30;container=1;collapsible=1;childLayout=tableLayout;fixedRows=1;rowLines=0;fontStyle=1;align=center;resizeLast=1;fillColor=#dae8fc;strokeColor=#6c8ebf;" parent="1" vertex="1">
          <mxGeometry x="430" y="1810" width="250" height="190" as="geometry" />
        </mxCell>
        <mxCell id="gLiJT_Oy5ucblzhfaL7l-251" value="" style="shape=partialRectangle;collapsible=0;dropTarget=0;pointerEvents=0;fillColor=none;points=[[0,0.5],[1,0.5]];portConstraint=eastwest;top=0;left=0;right=0;bottom=1;" parent="gLiJT_Oy5ucblzhfaL7l-250" vertex="1">
          <mxGeometry y="30" width="250" height="30" as="geometry" />
        </mxCell>
        <mxCell id="gLiJT_Oy5ucblzhfaL7l-252" value="PK" style="shape=partialRectangle;overflow=hidden;connectable=0;fillColor=none;top=0;left=0;bottom=0;right=0;fontStyle=1;" parent="gLiJT_Oy5ucblzhfaL7l-251" vertex="1">
          <mxGeometry width="30" height="30" as="geometry">
            <mxRectangle width="30" height="30" as="alternateBounds" />
          </mxGeometry>
        </mxCell>
        <mxCell id="gLiJT_Oy5ucblzhfaL7l-253" value="" style="shape=partialRectangle;overflow=hidden;connectable=0;fillColor=none;top=0;left=0;bottom=0;right=0;align=left;spacingLeft=6;fontStyle=5;" parent="gLiJT_Oy5ucblzhfaL7l-251" vertex="1">
          <mxGeometry x="30" width="220" height="30" as="geometry">
            <mxRectangle width="220" height="30" as="alternateBounds" />
          </mxGeometry>
        </mxCell>
        <mxCell id="gLiJT_Oy5ucblzhfaL7l-254" value="" style="shape=partialRectangle;collapsible=0;dropTarget=0;pointerEvents=0;fillColor=none;points=[[0,0.5],[1,0.5]];portConstraint=eastwest;top=0;left=0;right=0;bottom=0;" parent="gLiJT_Oy5ucblzhfaL7l-250" vertex="1">
          <mxGeometry y="60" width="250" height="30" as="geometry" />
        </mxCell>
        <mxCell id="gLiJT_Oy5ucblzhfaL7l-255" value="" style="shape=partialRectangle;overflow=hidden;connectable=0;fillColor=none;top=0;left=0;bottom=0;right=0;" parent="gLiJT_Oy5ucblzhfaL7l-254" vertex="1">
          <mxGeometry width="30" height="30" as="geometry">
            <mxRectangle width="30" height="30" as="alternateBounds" />
          </mxGeometry>
        </mxCell>
        <mxCell id="gLiJT_Oy5ucblzhfaL7l-256" value="" style="shape=partialRectangle;overflow=hidden;connectable=0;fillColor=none;top=0;left=0;bottom=0;right=0;align=left;spacingLeft=6;" parent="gLiJT_Oy5ucblzhfaL7l-254" vertex="1">
          <mxGeometry x="30" width="220" height="30" as="geometry">
            <mxRectangle width="220" height="30" as="alternateBounds" />
          </mxGeometry>
        </mxCell>
        <mxCell id="gLiJT_Oy5ucblzhfaL7l-257" value="" style="shape=partialRectangle;collapsible=0;dropTarget=0;pointerEvents=0;fillColor=none;points=[[0,0.5],[1,0.5]];portConstraint=eastwest;top=0;left=0;right=0;bottom=0;" parent="gLiJT_Oy5ucblzhfaL7l-250" vertex="1">
          <mxGeometry y="90" width="250" height="30" as="geometry" />
        </mxCell>
        <mxCell id="gLiJT_Oy5ucblzhfaL7l-258" value="" style="shape=partialRectangle;overflow=hidden;connectable=0;fillColor=none;top=0;left=0;bottom=0;right=0;" parent="gLiJT_Oy5ucblzhfaL7l-257" vertex="1">
          <mxGeometry width="30" height="30" as="geometry">
            <mxRectangle width="30" height="30" as="alternateBounds" />
          </mxGeometry>
        </mxCell>
        <mxCell id="gLiJT_Oy5ucblzhfaL7l-259" value="" style="shape=partialRectangle;overflow=hidden;connectable=0;fillColor=none;top=0;left=0;bottom=0;right=0;align=left;spacingLeft=6;" parent="gLiJT_Oy5ucblzhfaL7l-257" vertex="1">
          <mxGeometry x="30" width="220" height="30" as="geometry">
            <mxRectangle width="220" height="30" as="alternateBounds" />
          </mxGeometry>
        </mxCell>
        <mxCell id="gLiJT_Oy5ucblzhfaL7l-260" value="id int NOT NULL" style="shape=partialRectangle;overflow=hidden;connectable=0;fillColor=none;top=0;left=0;bottom=0;right=0;align=left;spacingLeft=6;fontStyle=5;" parent="1" vertex="1">
          <mxGeometry x="460" y="1840" width="220" height="30" as="geometry">
            <mxRectangle width="220" height="30" as="alternateBounds" />
          </mxGeometry>
        </mxCell>
        <mxCell id="gLiJT_Oy5ucblzhfaL7l-261" value="authName VARCHAR(50) " style="shape=partialRectangle;overflow=hidden;connectable=0;fillColor=none;top=0;left=0;bottom=0;right=0;align=left;spacingLeft=6;" parent="1" vertex="1">
          <mxGeometry x="460" y="1870" width="220" height="30" as="geometry">
            <mxRectangle width="220" height="30" as="alternateBounds" />
          </mxGeometry>
        </mxCell>
        <mxCell id="gLiJT_Oy5ucblzhfaL7l-262" value="rightUrl VARCHAR(200) " style="shape=partialRectangle;overflow=hidden;connectable=0;fillColor=none;top=0;left=0;bottom=0;right=0;align=left;spacingLeft=6;" parent="1" vertex="1">
          <mxGeometry x="460" y="1890" width="210" height="30" as="geometry">
            <mxRectangle width="220" height="30" as="alternateBounds" />
          </mxGeometry>
        </mxCell>
        <mxCell id="gLiJT_Oy5ucblzhfaL7l-263" value="authType TINYINT" style="shape=partialRectangle;overflow=hidden;connectable=0;fillColor=none;top=0;left=0;bottom=0;right=0;align=left;spacingLeft=6;" parent="1" vertex="1">
          <mxGeometry x="460" y="1910" width="210" height="30" as="geometry">
            <mxRectangle width="220" height="30" as="alternateBounds" />
          </mxGeometry>
        </mxCell>
        <mxCell id="gLiJT_Oy5ucblzhfaL7l-264" value="authLevel TINYINT" style="shape=partialRectangle;overflow=hidden;connectable=0;fillColor=none;top=0;left=0;bottom=0;right=0;align=left;spacingLeft=6;" parent="1" vertex="1">
          <mxGeometry x="460" y="1930" width="210" height="30" as="geometry">
            <mxRectangle width="220" height="30" as="alternateBounds" />
          </mxGeometry>
        </mxCell>
        <mxCell id="gLiJT_Oy5ucblzhfaL7l-265" value="role_authorityfunc" style="shape=table;startSize=30;container=1;collapsible=1;childLayout=tableLayout;fixedRows=1;rowLines=0;fontStyle=1;align=center;resizeLast=1;fillColor=#dae8fc;strokeColor=#6c8ebf;" parent="1" vertex="1">
          <mxGeometry x="60" y="1810" width="250" height="120" as="geometry" />
        </mxCell>
        <mxCell id="gLiJT_Oy5ucblzhfaL7l-266" value="" style="shape=partialRectangle;collapsible=0;dropTarget=0;pointerEvents=0;fillColor=none;points=[[0,0.5],[1,0.5]];portConstraint=eastwest;top=0;left=0;right=0;bottom=1;" parent="gLiJT_Oy5ucblzhfaL7l-265" vertex="1">
          <mxGeometry y="30" width="250" height="30" as="geometry" />
        </mxCell>
        <mxCell id="gLiJT_Oy5ucblzhfaL7l-267" value="PK" style="shape=partialRectangle;overflow=hidden;connectable=0;fillColor=none;top=0;left=0;bottom=0;right=0;fontStyle=1;" parent="gLiJT_Oy5ucblzhfaL7l-266" vertex="1">
          <mxGeometry width="30" height="30" as="geometry">
            <mxRectangle width="30" height="30" as="alternateBounds" />
          </mxGeometry>
        </mxCell>
        <mxCell id="gLiJT_Oy5ucblzhfaL7l-268" value="id int NOT NULL" style="shape=partialRectangle;overflow=hidden;connectable=0;fillColor=none;top=0;left=0;bottom=0;right=0;align=left;spacingLeft=6;fontStyle=5;" parent="gLiJT_Oy5ucblzhfaL7l-266" vertex="1">
          <mxGeometry x="30" width="220" height="30" as="geometry">
            <mxRectangle width="220" height="30" as="alternateBounds" />
          </mxGeometry>
        </mxCell>
        <mxCell id="gLiJT_Oy5ucblzhfaL7l-269" value="" style="shape=partialRectangle;collapsible=0;dropTarget=0;pointerEvents=0;fillColor=none;points=[[0,0.5],[1,0.5]];portConstraint=eastwest;top=0;left=0;right=0;bottom=0;" parent="gLiJT_Oy5ucblzhfaL7l-265" vertex="1">
          <mxGeometry y="60" width="250" height="30" as="geometry" />
        </mxCell>
        <mxCell id="gLiJT_Oy5ucblzhfaL7l-270" value="" style="shape=partialRectangle;overflow=hidden;connectable=0;fillColor=none;top=0;left=0;bottom=0;right=0;" parent="gLiJT_Oy5ucblzhfaL7l-269" vertex="1">
          <mxGeometry width="30" height="30" as="geometry">
            <mxRectangle width="30" height="30" as="alternateBounds" />
          </mxGeometry>
        </mxCell>
        <mxCell id="gLiJT_Oy5ucblzhfaL7l-271" value="" style="shape=partialRectangle;overflow=hidden;connectable=0;fillColor=none;top=0;left=0;bottom=0;right=0;align=left;spacingLeft=6;" parent="gLiJT_Oy5ucblzhfaL7l-269" vertex="1">
          <mxGeometry x="30" width="220" height="30" as="geometry">
            <mxRectangle width="220" height="30" as="alternateBounds" />
          </mxGeometry>
        </mxCell>
        <mxCell id="gLiJT_Oy5ucblzhfaL7l-272" value="" style="shape=partialRectangle;collapsible=0;dropTarget=0;pointerEvents=0;fillColor=none;points=[[0,0.5],[1,0.5]];portConstraint=eastwest;top=0;left=0;right=0;bottom=0;" parent="gLiJT_Oy5ucblzhfaL7l-265" vertex="1">
          <mxGeometry y="90" width="250" height="30" as="geometry" />
        </mxCell>
        <mxCell id="gLiJT_Oy5ucblzhfaL7l-273" value="" style="shape=partialRectangle;overflow=hidden;connectable=0;fillColor=none;top=0;left=0;bottom=0;right=0;" parent="gLiJT_Oy5ucblzhfaL7l-272" vertex="1">
          <mxGeometry width="30" height="30" as="geometry">
            <mxRectangle width="30" height="30" as="alternateBounds" />
          </mxGeometry>
        </mxCell>
        <mxCell id="gLiJT_Oy5ucblzhfaL7l-274" value="" style="shape=partialRectangle;overflow=hidden;connectable=0;fillColor=none;top=0;left=0;bottom=0;right=0;align=left;spacingLeft=6;" parent="gLiJT_Oy5ucblzhfaL7l-272" vertex="1">
          <mxGeometry x="30" width="220" height="30" as="geometry">
            <mxRectangle width="220" height="30" as="alternateBounds" />
          </mxGeometry>
        </mxCell>
        <mxCell id="gLiJT_Oy5ucblzhfaL7l-275" value="roleId int NOT NULL" style="shape=partialRectangle;overflow=hidden;connectable=0;fillColor=none;top=0;left=0;bottom=0;right=0;align=left;spacingLeft=6;" parent="1" vertex="1">
          <mxGeometry x="90" y="1870" width="220" height="30" as="geometry">
            <mxRectangle width="220" height="30" as="alternateBounds" />
          </mxGeometry>
        </mxCell>
        <mxCell id="gLiJT_Oy5ucblzhfaL7l-276" value="authId int NOT NULL " style="shape=partialRectangle;overflow=hidden;connectable=0;fillColor=none;top=0;left=0;bottom=0;right=0;align=left;spacingLeft=6;" parent="1" vertex="1">
          <mxGeometry x="90" y="1890" width="210" height="30" as="geometry">
            <mxRectangle width="220" height="30" as="alternateBounds" />
          </mxGeometry>
        </mxCell>
        <mxCell id="gLiJT_Oy5ucblzhfaL7l-277" style="edgeStyle=orthogonalEdgeStyle;rounded=0;orthogonalLoop=1;jettySize=auto;html=1;entryX=0;entryY=0.5;entryDx=0;entryDy=0;fontSize=14;endArrow=none;endFill=0;" parent="1" target="gLiJT_Oy5ucblzhfaL7l-251" edge="1">
          <mxGeometry relative="1" as="geometry">
            <mxPoint x="310" y="1885" as="sourcePoint" />
            <Array as="points">
              <mxPoint x="310" y="1910" />
              <mxPoint x="340" y="1910" />
              <mxPoint x="340" y="1855" />
            </Array>
          </mxGeometry>
        </mxCell>
        <mxCell id="gLiJT_Oy5ucblzhfaL7l-278" value="pid int NOT NULL" style="shape=partialRectangle;overflow=hidden;connectable=0;fillColor=none;top=0;left=0;bottom=0;right=0;align=left;spacingLeft=6;" parent="1" vertex="1">
          <mxGeometry x="460" y="1950" width="210" height="30" as="geometry">
            <mxRectangle width="220" height="30" as="alternateBounds" />
          </mxGeometry>
        </mxCell>
        <mxCell id="gLiJT_Oy5ucblzhfaL7l-279" value="pids VARCHAR(50)   NOT NULL" style="shape=partialRectangle;overflow=hidden;connectable=0;fillColor=none;top=0;left=0;bottom=0;right=0;align=left;spacingLeft=6;" parent="1" vertex="1">
          <mxGeometry x="460" y="1970" width="210" height="30" as="geometry">
            <mxRectangle width="220" height="30" as="alternateBounds" />
          </mxGeometry>
        </mxCell>
        <mxCell id="gLiJT_Oy5ucblzhfaL7l-280" style="edgeStyle=orthogonalEdgeStyle;rounded=0;orthogonalLoop=1;jettySize=auto;html=1;exitX=0;exitY=0.5;exitDx=0;exitDy=0;entryX=0;entryY=0.5;entryDx=0;entryDy=0;fontSize=14;endArrow=none;endFill=0;" parent="1" source="gLiJT_Oy5ucblzhfaL7l-269" target="gLiJT_Oy5ucblzhfaL7l-216" edge="1">
          <mxGeometry relative="1" as="geometry" />
        </mxCell>
        <mxCell id="gLiJT_Oy5ucblzhfaL7l-281" value="oplog" style="shape=table;startSize=30;container=1;collapsible=1;childLayout=tableLayout;fixedRows=1;rowLines=0;fontStyle=1;align=center;resizeLast=1;fillColor=#dae8fc;strokeColor=#6c8ebf;" parent="1" vertex="1">
          <mxGeometry x="750" y="1810" width="250" height="170" as="geometry" />
        </mxCell>
        <mxCell id="gLiJT_Oy5ucblzhfaL7l-282" value="" style="shape=partialRectangle;collapsible=0;dropTarget=0;pointerEvents=0;fillColor=none;points=[[0,0.5],[1,0.5]];portConstraint=eastwest;top=0;left=0;right=0;bottom=1;" parent="gLiJT_Oy5ucblzhfaL7l-281" vertex="1">
          <mxGeometry y="30" width="250" height="30" as="geometry" />
        </mxCell>
        <mxCell id="gLiJT_Oy5ucblzhfaL7l-283" value="PK" style="shape=partialRectangle;overflow=hidden;connectable=0;fillColor=none;top=0;left=0;bottom=0;right=0;fontStyle=1;" parent="gLiJT_Oy5ucblzhfaL7l-282" vertex="1">
          <mxGeometry width="30" height="30" as="geometry">
            <mxRectangle width="30" height="30" as="alternateBounds" />
          </mxGeometry>
        </mxCell>
        <mxCell id="gLiJT_Oy5ucblzhfaL7l-284" value="" style="shape=partialRectangle;overflow=hidden;connectable=0;fillColor=none;top=0;left=0;bottom=0;right=0;align=left;spacingLeft=6;fontStyle=5;" parent="gLiJT_Oy5ucblzhfaL7l-282" vertex="1">
          <mxGeometry x="30" width="220" height="30" as="geometry">
            <mxRectangle width="220" height="30" as="alternateBounds" />
          </mxGeometry>
        </mxCell>
        <mxCell id="gLiJT_Oy5ucblzhfaL7l-285" value="" style="shape=partialRectangle;collapsible=0;dropTarget=0;pointerEvents=0;fillColor=none;points=[[0,0.5],[1,0.5]];portConstraint=eastwest;top=0;left=0;right=0;bottom=0;" parent="gLiJT_Oy5ucblzhfaL7l-281" vertex="1">
          <mxGeometry y="60" width="250" height="30" as="geometry" />
        </mxCell>
        <mxCell id="gLiJT_Oy5ucblzhfaL7l-286" value="" style="shape=partialRectangle;overflow=hidden;connectable=0;fillColor=none;top=0;left=0;bottom=0;right=0;" parent="gLiJT_Oy5ucblzhfaL7l-285" vertex="1">
          <mxGeometry width="30" height="30" as="geometry">
            <mxRectangle width="30" height="30" as="alternateBounds" />
          </mxGeometry>
        </mxCell>
        <mxCell id="gLiJT_Oy5ucblzhfaL7l-287" value="" style="shape=partialRectangle;overflow=hidden;connectable=0;fillColor=none;top=0;left=0;bottom=0;right=0;align=left;spacingLeft=6;" parent="gLiJT_Oy5ucblzhfaL7l-285" vertex="1">
          <mxGeometry x="30" width="220" height="30" as="geometry">
            <mxRectangle width="220" height="30" as="alternateBounds" />
          </mxGeometry>
        </mxCell>
        <mxCell id="gLiJT_Oy5ucblzhfaL7l-288" value="" style="shape=partialRectangle;collapsible=0;dropTarget=0;pointerEvents=0;fillColor=none;points=[[0,0.5],[1,0.5]];portConstraint=eastwest;top=0;left=0;right=0;bottom=0;" parent="gLiJT_Oy5ucblzhfaL7l-281" vertex="1">
          <mxGeometry y="90" width="250" height="30" as="geometry" />
        </mxCell>
        <mxCell id="gLiJT_Oy5ucblzhfaL7l-289" value="" style="shape=partialRectangle;overflow=hidden;connectable=0;fillColor=none;top=0;left=0;bottom=0;right=0;" parent="gLiJT_Oy5ucblzhfaL7l-288" vertex="1">
          <mxGeometry width="30" height="30" as="geometry">
            <mxRectangle width="30" height="30" as="alternateBounds" />
          </mxGeometry>
        </mxCell>
        <mxCell id="gLiJT_Oy5ucblzhfaL7l-290" value="" style="shape=partialRectangle;overflow=hidden;connectable=0;fillColor=none;top=0;left=0;bottom=0;right=0;align=left;spacingLeft=6;" parent="gLiJT_Oy5ucblzhfaL7l-288" vertex="1">
          <mxGeometry x="30" width="220" height="30" as="geometry">
            <mxRectangle width="220" height="30" as="alternateBounds" />
          </mxGeometry>
        </mxCell>
        <mxCell id="gLiJT_Oy5ucblzhfaL7l-291" value="id int NOT NULL" style="shape=partialRectangle;overflow=hidden;connectable=0;fillColor=none;top=0;left=0;bottom=0;right=0;align=left;spacingLeft=6;fontStyle=5;" parent="1" vertex="1">
          <mxGeometry x="780" y="1840" width="220" height="30" as="geometry">
            <mxRectangle width="220" height="30" as="alternateBounds" />
          </mxGeometry>
        </mxCell>
        <mxCell id="gLiJT_Oy5ucblzhfaL7l-292" value="logName VARCHAR(50)  NOT NULL" style="shape=partialRectangle;overflow=hidden;connectable=0;fillColor=none;top=0;left=0;bottom=0;right=0;align=left;spacingLeft=6;" parent="1" vertex="1">
          <mxGeometry x="780" y="1870" width="220" height="30" as="geometry">
            <mxRectangle width="220" height="30" as="alternateBounds" />
          </mxGeometry>
        </mxCell>
        <mxCell id="gLiJT_Oy5ucblzhfaL7l-293" value="modelName VARCHAR(50) " style="shape=partialRectangle;overflow=hidden;connectable=0;fillColor=none;top=0;left=0;bottom=0;right=0;align=left;spacingLeft=6;" parent="1" vertex="1">
          <mxGeometry x="780" y="1890" width="210" height="30" as="geometry">
            <mxRectangle width="220" height="30" as="alternateBounds" />
          </mxGeometry>
        </mxCell>
        <mxCell id="gLiJT_Oy5ucblzhfaL7l-294" value="logType TINYINT NOT NULL" style="shape=partialRectangle;overflow=hidden;connectable=0;fillColor=none;top=0;left=0;bottom=0;right=0;align=left;spacingLeft=6;" parent="1" vertex="1">
          <mxGeometry x="780" y="1910" width="210" height="30" as="geometry">
            <mxRectangle width="220" height="30" as="alternateBounds" />
          </mxGeometry>
        </mxCell>
        <mxCell id="gLiJT_Oy5ucblzhfaL7l-295" value="businessType int" style="shape=partialRectangle;overflow=hidden;connectable=0;fillColor=none;top=0;left=0;bottom=0;right=0;align=left;spacingLeft=6;" parent="1" vertex="1">
          <mxGeometry x="780" y="1930" width="210" height="30" as="geometry">
            <mxRectangle width="220" height="30" as="alternateBounds" />
          </mxGeometry>
        </mxCell>
        <mxCell id="gLiJT_Oy5ucblzhfaL7l-296" value="actionState TINYINT NOT NULL" style="shape=partialRectangle;overflow=hidden;connectable=0;fillColor=none;top=0;left=0;bottom=0;right=0;align=left;spacingLeft=6;" parent="1" vertex="1">
          <mxGeometry x="780" y="1950" width="210" height="30" as="geometry">
            <mxRectangle width="220" height="30" as="alternateBounds" />
          </mxGeometry>
        </mxCell>
        <mxCell id="5Ot4b3tRMixygAjQAWJP-1" value="" style="rounded=0;whiteSpace=wrap;html=1;dashed=1;dashPattern=8 8;fillColor=#f5f5f5;fontColor=#333333;strokeColor=#666666;" parent="1" vertex="1">
          <mxGeometry x="210" y="2120" width="530" height="60" as="geometry" />
        </mxCell>
        <mxCell id="5Ot4b3tRMixygAjQAWJP-2" value="Gateway" style="rounded=1;whiteSpace=wrap;html=1;" parent="1" vertex="1">
          <mxGeometry x="430" y="2130" width="100" height="40" as="geometry" />
        </mxCell>
        <mxCell id="5Ot4b3tRMixygAjQAWJP-3" value="" style="rounded=0;whiteSpace=wrap;html=1;dashed=1;dashPattern=8 8;fillColor=#dae8fc;strokeColor=#6c8ebf;" parent="1" vertex="1">
          <mxGeometry x="210" y="2200" width="530" height="60" as="geometry" />
        </mxCell>
        <mxCell id="5Ot4b3tRMixygAjQAWJP-4" value="Sentinel" style="rounded=1;whiteSpace=wrap;html=1;" parent="1" vertex="1">
          <mxGeometry x="430" y="2210" width="100" height="40" as="geometry" />
        </mxCell>
        <mxCell id="5Ot4b3tRMixygAjQAWJP-5" value="API网关" style="text;strokeColor=none;align=center;fillColor=none;html=1;verticalAlign=middle;whiteSpace=wrap;rounded=0;" parent="1" vertex="1">
          <mxGeometry x="210" y="2120" width="60" height="30" as="geometry" />
        </mxCell>
        <mxCell id="5Ot4b3tRMixygAjQAWJP-6" value="流量限制" style="text;strokeColor=none;align=center;fillColor=none;html=1;verticalAlign=middle;whiteSpace=wrap;rounded=0;" parent="1" vertex="1">
          <mxGeometry x="210" y="2200" width="60" height="30" as="geometry" />
        </mxCell>
        <mxCell id="5Ot4b3tRMixygAjQAWJP-7" value="" style="rounded=0;whiteSpace=wrap;html=1;dashed=1;dashPattern=8 8;fillColor=#f8cecc;strokeColor=#b85450;" parent="1" vertex="1">
          <mxGeometry x="210" y="2280" width="530" height="210" as="geometry" />
        </mxCell>
        <mxCell id="5Ot4b3tRMixygAjQAWJP-9" value="应用服务" style="text;strokeColor=none;align=center;fillColor=none;html=1;verticalAlign=middle;whiteSpace=wrap;rounded=0;" parent="1" vertex="1">
          <mxGeometry x="210" y="2280" width="60" height="30" as="geometry" />
        </mxCell>
        <mxCell id="5Ot4b3tRMixygAjQAWJP-10" value="Service1" style="whiteSpace=wrap;html=1;aspect=fixed;" parent="1" vertex="1">
          <mxGeometry x="280" y="2310" width="80" height="80" as="geometry" />
        </mxCell>
        <mxCell id="5Ot4b3tRMixygAjQAWJP-11" value="Dubbo" style="rounded=0;whiteSpace=wrap;html=1;" parent="1" vertex="1">
          <mxGeometry x="280" y="2390" width="80" height="30" as="geometry" />
        </mxCell>
        <mxCell id="5Ot4b3tRMixygAjQAWJP-12" value="Service2" style="whiteSpace=wrap;html=1;aspect=fixed;" parent="1" vertex="1">
          <mxGeometry x="435" y="2310" width="80" height="80" as="geometry" />
        </mxCell>
        <mxCell id="5Ot4b3tRMixygAjQAWJP-13" value="Dubbo" style="rounded=0;whiteSpace=wrap;html=1;" parent="1" vertex="1">
          <mxGeometry x="435" y="2390" width="80" height="30" as="geometry" />
        </mxCell>
        <mxCell id="5Ot4b3tRMixygAjQAWJP-14" value="Service3" style="whiteSpace=wrap;html=1;aspect=fixed;" parent="1" vertex="1">
          <mxGeometry x="590" y="2310" width="80" height="80" as="geometry" />
        </mxCell>
        <mxCell id="5Ot4b3tRMixygAjQAWJP-15" value="Dubbo" style="rounded=0;whiteSpace=wrap;html=1;" parent="1" vertex="1">
          <mxGeometry x="590" y="2390" width="80" height="30" as="geometry" />
        </mxCell>
        <mxCell id="5Ot4b3tRMixygAjQAWJP-16" value="Seata" style="rounded=0;whiteSpace=wrap;html=1;" parent="1" vertex="1">
          <mxGeometry x="280" y="2430" width="390" height="30" as="geometry" />
        </mxCell>
        <mxCell id="5Ot4b3tRMixygAjQAWJP-17" value="" style="rounded=0;whiteSpace=wrap;html=1;dashed=1;dashPattern=8 8;fillColor=#e1d5e7;strokeColor=#9673a6;" parent="1" vertex="1">
          <mxGeometry x="210" y="2510" width="250" height="60" as="geometry" />
        </mxCell>
        <mxCell id="5Ot4b3tRMixygAjQAWJP-18" value="Kafka" style="rounded=1;whiteSpace=wrap;html=1;" parent="1" vertex="1">
          <mxGeometry x="300" y="2520" width="100" height="40" as="geometry" />
        </mxCell>
        <mxCell id="5Ot4b3tRMixygAjQAWJP-19" value="消息队列" style="text;strokeColor=none;align=center;fillColor=none;html=1;verticalAlign=middle;whiteSpace=wrap;rounded=0;" parent="1" vertex="1">
          <mxGeometry x="210" y="2510" width="60" height="30" as="geometry" />
        </mxCell>
        <mxCell id="5Ot4b3tRMixygAjQAWJP-20" value="" style="rounded=0;whiteSpace=wrap;html=1;dashed=1;dashPattern=8 8;fillColor=#f5f5f5;fontColor=#333333;strokeColor=#666666;" parent="1" vertex="1">
          <mxGeometry x="80" y="2590" width="800" height="60" as="geometry" />
        </mxCell>
        <mxCell id="5Ot4b3tRMixygAjQAWJP-21" value="" style="rounded=0;whiteSpace=wrap;html=1;dashed=1;dashPattern=8 8;fillColor=#ffe6cc;strokeColor=#d79b00;" parent="1" vertex="1">
          <mxGeometry x="80" y="2120" width="120" height="450" as="geometry" />
        </mxCell>
        <mxCell id="5Ot4b3tRMixygAjQAWJP-22" value="日志组件" style="text;strokeColor=none;align=center;fillColor=none;html=1;verticalAlign=middle;whiteSpace=wrap;rounded=0;" parent="1" vertex="1">
          <mxGeometry x="80" y="2120" width="120" height="30" as="geometry" />
        </mxCell>
        <mxCell id="5Ot4b3tRMixygAjQAWJP-8" value="Promtail" style="rounded=1;whiteSpace=wrap;html=1;" parent="1" vertex="1">
          <mxGeometry x="90" y="2190" width="100" height="40" as="geometry" />
        </mxCell>
        <mxCell id="5Ot4b3tRMixygAjQAWJP-23" value="Loki" style="rounded=1;whiteSpace=wrap;html=1;" parent="1" vertex="1">
          <mxGeometry x="90" y="2325" width="100" height="40" as="geometry" />
        </mxCell>
        <mxCell id="5Ot4b3tRMixygAjQAWJP-24" value="Grafana" style="rounded=1;whiteSpace=wrap;html=1;" parent="1" vertex="1">
          <mxGeometry x="90" y="2470" width="100" height="40" as="geometry" />
        </mxCell>
        <mxCell id="5Ot4b3tRMixygAjQAWJP-25" value="" style="rounded=0;whiteSpace=wrap;html=1;dashed=1;dashPattern=8 8;fillColor=#ffe6cc;strokeColor=#d79b00;" parent="1" vertex="1">
          <mxGeometry x="760" y="2120" width="120" height="450" as="geometry" />
        </mxCell>
        <mxCell id="5Ot4b3tRMixygAjQAWJP-26" value="服务治理" style="text;strokeColor=none;align=center;fillColor=none;html=1;verticalAlign=middle;whiteSpace=wrap;rounded=0;" parent="1" vertex="1">
          <mxGeometry x="760" y="2120" width="120" height="30" as="geometry" />
        </mxCell>
        <mxCell id="5Ot4b3tRMixygAjQAWJP-27" value="Nacos服务注册及发现" style="rounded=1;whiteSpace=wrap;html=1;" parent="1" vertex="1">
          <mxGeometry x="770" y="2190" width="100" height="40" as="geometry" />
        </mxCell>
        <mxCell id="5Ot4b3tRMixygAjQAWJP-28" value="Nacos配置中心" style="rounded=1;whiteSpace=wrap;html=1;" parent="1" vertex="1">
          <mxGeometry x="770" y="2325" width="100" height="40" as="geometry" />
        </mxCell>
        <mxCell id="5Ot4b3tRMixygAjQAWJP-29" value="" style="rounded=0;whiteSpace=wrap;html=1;dashed=1;dashPattern=8 8;fillColor=#d5e8d4;strokeColor=#82b366;" parent="1" vertex="1">
          <mxGeometry x="490" y="2510" width="250" height="60" as="geometry" />
        </mxCell>
        <mxCell id="5Ot4b3tRMixygAjQAWJP-30" value="Redis" style="rounded=1;whiteSpace=wrap;html=1;" parent="1" vertex="1">
          <mxGeometry x="580" y="2520" width="100" height="40" as="geometry" />
        </mxCell>
        <mxCell id="5Ot4b3tRMixygAjQAWJP-31" value="缓存" style="text;strokeColor=none;align=center;fillColor=none;html=1;verticalAlign=middle;whiteSpace=wrap;rounded=0;" parent="1" vertex="1">
          <mxGeometry x="490" y="2510" width="60" height="30" as="geometry" />
        </mxCell>
        <mxCell id="5Ot4b3tRMixygAjQAWJP-32" value="数据层" style="text;strokeColor=none;align=center;fillColor=none;html=1;verticalAlign=middle;whiteSpace=wrap;rounded=0;" parent="1" vertex="1">
          <mxGeometry x="80" y="2590" width="60" height="30" as="geometry" />
        </mxCell>
        <mxCell id="5Ot4b3tRMixygAjQAWJP-33" value="MySQL" style="rounded=1;whiteSpace=wrap;html=1;" parent="1" vertex="1">
          <mxGeometry x="300" y="2600" width="100" height="40" as="geometry" />
        </mxCell>
        <mxCell id="5Ot4b3tRMixygAjQAWJP-34" value="PostgreSQL" style="rounded=1;whiteSpace=wrap;html=1;" parent="1" vertex="1">
          <mxGeometry x="490" y="2600" width="100" height="40" as="geometry" />
        </mxCell>
        <mxCell id="5Ot4b3tRMixygAjQAWJP-35" value="TDEngine" style="rounded=1;whiteSpace=wrap;html=1;" parent="1" vertex="1">
          <mxGeometry x="670" y="2600" width="100" height="40" as="geometry" />
        </mxCell>
        <mxCell id="5Ot4b3tRMixygAjQAWJP-37" value="" style="rounded=0;whiteSpace=wrap;html=1;" parent="1" vertex="1">
          <mxGeometry x="1000" y="2090" width="850" height="590" as="geometry" />
        </mxCell>
        <mxCell id="5Ot4b3tRMixygAjQAWJP-38" value="" style="rounded=0;whiteSpace=wrap;html=1;dashed=1;dashPattern=8 8;fillColor=#f5f5f5;fontColor=#333333;strokeColor=#666666;" parent="1" vertex="1">
          <mxGeometry x="1150" y="2120" width="530" height="60" as="geometry" />
        </mxCell>
        <mxCell id="5Ot4b3tRMixygAjQAWJP-39" value="Gateway" style="rounded=1;whiteSpace=wrap;html=1;" parent="1" vertex="1">
          <mxGeometry x="1370" y="2130" width="100" height="40" as="geometry" />
        </mxCell>
        <mxCell id="5Ot4b3tRMixygAjQAWJP-40" value="" style="rounded=0;whiteSpace=wrap;html=1;dashed=1;dashPattern=8 8;fillColor=#dae8fc;strokeColor=#6c8ebf;" parent="1" vertex="1">
          <mxGeometry x="1150" y="2200" width="530" height="60" as="geometry" />
        </mxCell>
        <mxCell id="5Ot4b3tRMixygAjQAWJP-41" value="Sentinel" style="rounded=1;whiteSpace=wrap;html=1;" parent="1" vertex="1">
          <mxGeometry x="1370" y="2210" width="100" height="40" as="geometry" />
        </mxCell>
        <mxCell id="5Ot4b3tRMixygAjQAWJP-42" value="API网关" style="text;strokeColor=none;align=center;fillColor=none;html=1;verticalAlign=middle;whiteSpace=wrap;rounded=0;" parent="1" vertex="1">
          <mxGeometry x="1150" y="2120" width="60" height="30" as="geometry" />
        </mxCell>
        <mxCell id="5Ot4b3tRMixygAjQAWJP-43" value="流量限制" style="text;strokeColor=none;align=center;fillColor=none;html=1;verticalAlign=middle;whiteSpace=wrap;rounded=0;" parent="1" vertex="1">
          <mxGeometry x="1150" y="2200" width="60" height="30" as="geometry" />
        </mxCell>
        <mxCell id="5Ot4b3tRMixygAjQAWJP-44" value="" style="rounded=0;whiteSpace=wrap;html=1;dashed=1;dashPattern=8 8;fillColor=#f8cecc;strokeColor=#b85450;" parent="1" vertex="1">
          <mxGeometry x="1150" y="2280" width="530" height="210" as="geometry" />
        </mxCell>
        <mxCell id="5Ot4b3tRMixygAjQAWJP-45" value="应用服务" style="text;strokeColor=none;align=center;fillColor=none;html=1;verticalAlign=middle;whiteSpace=wrap;rounded=0;" parent="1" vertex="1">
          <mxGeometry x="1150" y="2280" width="60" height="30" as="geometry" />
        </mxCell>
        <mxCell id="5Ot4b3tRMixygAjQAWJP-46" value="Service1" style="whiteSpace=wrap;html=1;aspect=fixed;" parent="1" vertex="1">
          <mxGeometry x="1220" y="2310" width="80" height="80" as="geometry" />
        </mxCell>
        <mxCell id="5Ot4b3tRMixygAjQAWJP-47" value="gRPC" style="rounded=0;whiteSpace=wrap;html=1;" parent="1" vertex="1">
          <mxGeometry x="1220" y="2390" width="80" height="30" as="geometry" />
        </mxCell>
        <mxCell id="5Ot4b3tRMixygAjQAWJP-48" value="Service2" style="whiteSpace=wrap;html=1;aspect=fixed;" parent="1" vertex="1">
          <mxGeometry x="1375" y="2310" width="80" height="80" as="geometry" />
        </mxCell>
        <mxCell id="5Ot4b3tRMixygAjQAWJP-49" value="gRPC" style="rounded=0;whiteSpace=wrap;html=1;" parent="1" vertex="1">
          <mxGeometry x="1375" y="2390" width="80" height="30" as="geometry" />
        </mxCell>
        <mxCell id="5Ot4b3tRMixygAjQAWJP-50" value="Service3" style="whiteSpace=wrap;html=1;aspect=fixed;" parent="1" vertex="1">
          <mxGeometry x="1530" y="2310" width="80" height="80" as="geometry" />
        </mxCell>
        <mxCell id="5Ot4b3tRMixygAjQAWJP-51" value="gRPC" style="rounded=0;whiteSpace=wrap;html=1;" parent="1" vertex="1">
          <mxGeometry x="1530" y="2390" width="80" height="30" as="geometry" />
        </mxCell>
        <mxCell id="5Ot4b3tRMixygAjQAWJP-52" value="KubeDNS" style="rounded=0;whiteSpace=wrap;html=1;" parent="1" vertex="1">
          <mxGeometry x="1220" y="2430" width="390" height="30" as="geometry" />
        </mxCell>
        <mxCell id="5Ot4b3tRMixygAjQAWJP-53" value="" style="rounded=0;whiteSpace=wrap;html=1;dashed=1;dashPattern=8 8;fillColor=#e1d5e7;strokeColor=#9673a6;" parent="1" vertex="1">
          <mxGeometry x="1150" y="2510" width="250" height="60" as="geometry" />
        </mxCell>
        <mxCell id="5Ot4b3tRMixygAjQAWJP-54" value="Kafka" style="rounded=1;whiteSpace=wrap;html=1;" parent="1" vertex="1">
          <mxGeometry x="1240" y="2520" width="100" height="40" as="geometry" />
        </mxCell>
        <mxCell id="5Ot4b3tRMixygAjQAWJP-55" value="消息队列" style="text;strokeColor=none;align=center;fillColor=none;html=1;verticalAlign=middle;whiteSpace=wrap;rounded=0;" parent="1" vertex="1">
          <mxGeometry x="1150" y="2510" width="60" height="30" as="geometry" />
        </mxCell>
        <mxCell id="5Ot4b3tRMixygAjQAWJP-56" value="" style="rounded=0;whiteSpace=wrap;html=1;dashed=1;dashPattern=8 8;fillColor=#f5f5f5;fontColor=#333333;strokeColor=#666666;" parent="1" vertex="1">
          <mxGeometry x="1020" y="2590" width="660" height="60" as="geometry" />
        </mxCell>
        <mxCell id="5Ot4b3tRMixygAjQAWJP-57" value="" style="rounded=0;whiteSpace=wrap;html=1;dashed=1;dashPattern=8 8;fillColor=#ffe6cc;strokeColor=#d79b00;" parent="1" vertex="1">
          <mxGeometry x="1020" y="2120" width="120" height="450" as="geometry" />
        </mxCell>
        <mxCell id="5Ot4b3tRMixygAjQAWJP-58" value="日志组件" style="text;strokeColor=none;align=center;fillColor=none;html=1;verticalAlign=middle;whiteSpace=wrap;rounded=0;" parent="1" vertex="1">
          <mxGeometry x="1020" y="2120" width="120" height="30" as="geometry" />
        </mxCell>
        <mxCell id="5Ot4b3tRMixygAjQAWJP-59" value="Promtail" style="rounded=1;whiteSpace=wrap;html=1;" parent="1" vertex="1">
          <mxGeometry x="1030" y="2190" width="100" height="40" as="geometry" />
        </mxCell>
        <mxCell id="5Ot4b3tRMixygAjQAWJP-60" value="Loki" style="rounded=1;whiteSpace=wrap;html=1;" parent="1" vertex="1">
          <mxGeometry x="1030" y="2325" width="100" height="40" as="geometry" />
        </mxCell>
        <mxCell id="5Ot4b3tRMixygAjQAWJP-61" value="Grafana" style="rounded=1;whiteSpace=wrap;html=1;" parent="1" vertex="1">
          <mxGeometry x="1030" y="2470" width="100" height="40" as="geometry" />
        </mxCell>
        <mxCell id="5Ot4b3tRMixygAjQAWJP-66" value="" style="rounded=0;whiteSpace=wrap;html=1;dashed=1;dashPattern=8 8;fillColor=#d5e8d4;strokeColor=#82b366;" parent="1" vertex="1">
          <mxGeometry x="1430" y="2510" width="250" height="60" as="geometry" />
        </mxCell>
        <mxCell id="5Ot4b3tRMixygAjQAWJP-67" value="Redis" style="rounded=1;whiteSpace=wrap;html=1;" parent="1" vertex="1">
          <mxGeometry x="1520" y="2520" width="100" height="40" as="geometry" />
        </mxCell>
        <mxCell id="5Ot4b3tRMixygAjQAWJP-68" value="缓存" style="text;strokeColor=none;align=center;fillColor=none;html=1;verticalAlign=middle;whiteSpace=wrap;rounded=0;" parent="1" vertex="1">
          <mxGeometry x="1430" y="2510" width="60" height="30" as="geometry" />
        </mxCell>
        <mxCell id="5Ot4b3tRMixygAjQAWJP-69" value="数据层" style="text;strokeColor=none;align=center;fillColor=none;html=1;verticalAlign=middle;whiteSpace=wrap;rounded=0;" parent="1" vertex="1">
          <mxGeometry x="1020" y="2590" width="60" height="30" as="geometry" />
        </mxCell>
        <mxCell id="5Ot4b3tRMixygAjQAWJP-70" value="MySQL" style="rounded=1;whiteSpace=wrap;html=1;" parent="1" vertex="1">
          <mxGeometry x="1208" y="2600" width="100" height="40" as="geometry" />
        </mxCell>
        <mxCell id="5Ot4b3tRMixygAjQAWJP-71" value="PostgreSQL" style="rounded=1;whiteSpace=wrap;html=1;" parent="1" vertex="1">
          <mxGeometry x="1398" y="2600" width="100" height="40" as="geometry" />
        </mxCell>
        <mxCell id="5Ot4b3tRMixygAjQAWJP-72" value="TDEngine" style="rounded=1;whiteSpace=wrap;html=1;" parent="1" vertex="1">
          <mxGeometry x="1569" y="2600" width="100" height="40" as="geometry" />
        </mxCell>
        <mxCell id="wD4l3W-HGcE-d99SAAs_-2" value="" style="rounded=0;whiteSpace=wrap;html=1;dashed=1;dashPattern=8 8;fillColor=#f5f5f5;fontColor=#333333;strokeColor=#666666;" parent="1" vertex="1">
          <mxGeometry x="1090" y="2940" width="700" height="60" as="geometry" />
        </mxCell>
        <mxCell id="wD4l3W-HGcE-d99SAAs_-3" value="微服务网关&lt;div&gt;Spring Cloud Gateway&lt;/div&gt;" style="rounded=1;whiteSpace=wrap;html=1;fontSize=14;" parent="1" vertex="1">
          <mxGeometry x="1348.5" y="2950" width="193" height="40" as="geometry" />
        </mxCell>
        <mxCell id="wD4l3W-HGcE-d99SAAs_-6" value="网关集群" style="text;strokeColor=none;align=center;fillColor=none;html=1;verticalAlign=middle;whiteSpace=wrap;rounded=0;fontSize=14;" parent="1" vertex="1">
          <mxGeometry x="1096" y="2940" width="60" height="30" as="geometry" />
        </mxCell>
        <mxCell id="wD4l3W-HGcE-d99SAAs_-8" value="" style="rounded=0;whiteSpace=wrap;html=1;dashed=1;dashPattern=8 8;fillColor=#f8cecc;strokeColor=#b85450;" parent="1" vertex="1">
          <mxGeometry x="1090" y="3020" width="700" height="480" as="geometry" />
        </mxCell>
        <mxCell id="wD4l3W-HGcE-d99SAAs_-9" value="应用服务集群" style="text;strokeColor=none;align=center;fillColor=none;html=1;verticalAlign=middle;whiteSpace=wrap;rounded=0;fontSize=14;" parent="1" vertex="1">
          <mxGeometry x="1094" y="3021" width="77" height="30" as="geometry" />
        </mxCell>
        <mxCell id="wD4l3W-HGcE-d99SAAs_-17" value="" style="rounded=0;whiteSpace=wrap;html=1;dashed=1;dashPattern=8 8;fillColor=#e1d5e7;strokeColor=#9673a6;" parent="1" vertex="1">
          <mxGeometry x="930" y="3380" width="130" height="120" as="geometry" />
        </mxCell>
        <mxCell id="wD4l3W-HGcE-d99SAAs_-20" value="" style="rounded=0;whiteSpace=wrap;html=1;dashed=1;dashPattern=8 8;fillColor=#f5f5f5;fontColor=#333333;strokeColor=#666666;" parent="1" vertex="1">
          <mxGeometry x="1090" y="3522" width="850" height="60" as="geometry" />
        </mxCell>
        <mxCell id="wD4l3W-HGcE-d99SAAs_-21" value="" style="rounded=0;whiteSpace=wrap;html=1;dashed=1;dashPattern=8 8;fillColor=#ffe6cc;strokeColor=#d79b00;" parent="1" vertex="1">
          <mxGeometry x="935" y="2860" width="120" height="480" as="geometry" />
        </mxCell>
        <mxCell id="wD4l3W-HGcE-d99SAAs_-22" value="核心组件" style="text;strokeColor=none;align=center;fillColor=none;html=1;verticalAlign=middle;whiteSpace=wrap;rounded=0;fontSize=14;" parent="1" vertex="1">
          <mxGeometry x="935" y="2860" width="120" height="30" as="geometry" />
        </mxCell>
        <mxCell id="wD4l3W-HGcE-d99SAAs_-23" value="注册中心&lt;div&gt;&lt;div&gt;配置中心&lt;/div&gt;&lt;div&gt;Nacos&lt;/div&gt;&lt;/div&gt;" style="rounded=1;whiteSpace=wrap;html=1;fontSize=14;" parent="1" vertex="1">
          <mxGeometry x="945" y="2960" width="100" height="90" as="geometry" />
        </mxCell>
        <mxCell id="wD4l3W-HGcE-d99SAAs_-27" value="缓存数据库&lt;div&gt;Redis&lt;/div&gt;" style="rounded=1;whiteSpace=wrap;html=1;fontSize=14;" parent="1" vertex="1">
          <mxGeometry x="1198" y="3532" width="100" height="40" as="geometry" />
        </mxCell>
        <mxCell id="wD4l3W-HGcE-d99SAAs_-29" value="数据层" style="text;strokeColor=none;align=center;fillColor=none;html=1;verticalAlign=middle;whiteSpace=wrap;rounded=0;fontSize=14;" parent="1" vertex="1">
          <mxGeometry x="1090" y="3522" width="60" height="30" as="geometry" />
        </mxCell>
        <mxCell id="wD4l3W-HGcE-d99SAAs_-30" value="关系数据库&lt;div&gt;mysql&lt;/div&gt;" style="rounded=1;whiteSpace=wrap;html=1;fontSize=14;" parent="1" vertex="1">
          <mxGeometry x="1325" y="3532" width="100" height="40" as="geometry" />
        </mxCell>
        <mxCell id="wD4l3W-HGcE-d99SAAs_-31" value="对象存储" style="rounded=1;whiteSpace=wrap;html=1;fontSize=14;" parent="1" vertex="1">
          <mxGeometry x="1453" y="3532" width="100" height="40" as="geometry" />
        </mxCell>
        <mxCell id="wD4l3W-HGcE-d99SAAs_-32" value="时序数据库influxdb" style="rounded=1;whiteSpace=wrap;html=1;fontSize=14;" parent="1" vertex="1">
          <mxGeometry x="1583.5" y="3532" width="100" height="40" as="geometry" />
        </mxCell>
        <mxCell id="wD4l3W-HGcE-d99SAAs_-33" value="" style="rounded=0;whiteSpace=wrap;html=1;dashed=1;dashPattern=8 8;fillColor=#fff2cc;strokeColor=#d6b656;" parent="1" vertex="1">
          <mxGeometry x="1090" y="2760" width="710" height="60" as="geometry" />
        </mxCell>
        <mxCell id="wD4l3W-HGcE-d99SAAs_-34" value="" style="fontColor=#0066CC;verticalAlign=top;verticalLabelPosition=bottom;labelPosition=center;align=center;html=1;outlineConnect=0;fillColor=#CCCCCC;strokeColor=#6881B3;gradientColor=none;gradientDirection=north;strokeWidth=2;shape=mxgraph.networks.monitor;" parent="1" vertex="1">
          <mxGeometry x="1300" y="2767.5" width="60" height="45" as="geometry" />
        </mxCell>
        <mxCell id="wD4l3W-HGcE-d99SAAs_-35" value="" style="fontColor=#0066CC;verticalAlign=top;verticalLabelPosition=bottom;labelPosition=center;align=center;html=1;outlineConnect=0;fillColor=#CCCCCC;strokeColor=#6881B3;gradientColor=none;gradientDirection=north;strokeWidth=2;shape=mxgraph.networks.laptop;" parent="1" vertex="1">
          <mxGeometry x="1476" y="2767.5" width="77" height="45" as="geometry" />
        </mxCell>
        <mxCell id="wD4l3W-HGcE-d99SAAs_-36" value="前端用户界面" style="text;strokeColor=none;align=center;fillColor=none;html=1;verticalAlign=middle;whiteSpace=wrap;rounded=0;fontSize=14;" parent="1" vertex="1">
          <mxGeometry x="1840" y="2767.5" width="80" height="30" as="geometry" />
        </mxCell>
        <mxCell id="wD4l3W-HGcE-d99SAAs_-37" value="" style="rounded=0;whiteSpace=wrap;html=1;dashed=1;dashPattern=8 8;fillColor=#f5f5f5;fontColor=#333333;strokeColor=#666666;" parent="1" vertex="1">
          <mxGeometry x="1090" y="2860" width="480" height="60" as="geometry" />
        </mxCell>
        <mxCell id="wD4l3W-HGcE-d99SAAs_-40" value="Nginx负载均衡" style="rounded=1;whiteSpace=wrap;html=1;fontSize=14;" parent="1" vertex="1">
          <mxGeometry x="1150" y="2870" width="100" height="40" as="geometry" />
        </mxCell>
        <mxCell id="wD4l3W-HGcE-d99SAAs_-41" value="API网关" style="rounded=1;whiteSpace=wrap;html=1;fontSize=14;" parent="1" vertex="1">
          <mxGeometry x="1617.5" y="2870" width="100" height="40" as="geometry" />
        </mxCell>
        <mxCell id="wD4l3W-HGcE-d99SAAs_-46" value="" style="rounded=0;whiteSpace=wrap;html=1;dashed=1;" parent="1" vertex="1">
          <mxGeometry x="1133" y="3222.5" width="137" height="120" as="geometry" />
        </mxCell>
        <mxCell id="wD4l3W-HGcE-d99SAAs_-45" value="性能管理" style="rounded=1;whiteSpace=wrap;html=1;fillColor=#dae8fc;strokeColor=#6c8ebf;fontSize=14;" parent="1" vertex="1">
          <mxGeometry x="1150" y="3232.5" width="100" height="40" as="geometry" />
        </mxCell>
        <mxCell id="wD4l3W-HGcE-d99SAAs_-50" value="IIOT设备协议解析端" style="rounded=1;whiteSpace=wrap;html=1;fillColor=#dae8fc;strokeColor=#6c8ebf;fontSize=14;" parent="1" vertex="1">
          <mxGeometry x="953" y="3531" width="103" height="44" as="geometry" />
        </mxCell>
        <mxCell id="wD4l3W-HGcE-d99SAAs_-53" value="" style="rounded=0;whiteSpace=wrap;html=1;dashed=1;" parent="1" vertex="1">
          <mxGeometry x="1284.5" y="3222.5" width="137" height="120" as="geometry" />
        </mxCell>
        <mxCell id="wD4l3W-HGcE-d99SAAs_-54" value="试验业务管理" style="rounded=1;whiteSpace=wrap;html=1;fillColor=#dae8fc;strokeColor=#6c8ebf;fontSize=14;" parent="1" vertex="1">
          <mxGeometry x="1301.5" y="3232.5" width="100" height="40" as="geometry" />
        </mxCell>
        <mxCell id="wD4l3W-HGcE-d99SAAs_-69" value="" style="rounded=0;whiteSpace=wrap;html=1;dashed=1;" parent="1" vertex="1">
          <mxGeometry x="1288" y="3362.5" width="137" height="120" as="geometry" />
        </mxCell>
        <mxCell id="wD4l3W-HGcE-d99SAAs_-70" value="竞品管理" style="rounded=1;whiteSpace=wrap;html=1;fillColor=#dae8fc;strokeColor=#6c8ebf;fontSize=14;" parent="1" vertex="1">
          <mxGeometry x="1305" y="3372.5" width="100" height="40" as="geometry" />
        </mxCell>
        <mxCell id="wD4l3W-HGcE-d99SAAs_-73" value="" style="rounded=0;whiteSpace=wrap;html=1;dashed=1;" parent="1" vertex="1">
          <mxGeometry x="1441" y="3362.5" width="137" height="120" as="geometry" />
        </mxCell>
        <mxCell id="wD4l3W-HGcE-d99SAAs_-74" value="仿真业务管理" style="rounded=1;whiteSpace=wrap;html=1;fillColor=#dae8fc;strokeColor=#6c8ebf;fontSize=14;" parent="1" vertex="1">
          <mxGeometry x="1458" y="3372.5" width="100" height="40" as="geometry" />
        </mxCell>
        <mxCell id="wD4l3W-HGcE-d99SAAs_-82" value="消息队列&lt;div&gt;Kafka&lt;/div&gt;" style="rounded=1;whiteSpace=wrap;html=1;fontSize=14;" parent="1" vertex="1">
          <mxGeometry x="944" y="3417.5" width="100" height="50" as="geometry" />
        </mxCell>
        <mxCell id="wD4l3W-HGcE-d99SAAs_-85" value="链路追踪&lt;div&gt;SkyWalking OAP&lt;/div&gt;" style="rounded=1;whiteSpace=wrap;html=1;fontSize=14;" parent="1" vertex="1">
          <mxGeometry x="944" y="3188.75" width="100" height="82.5" as="geometry" />
        </mxCell>
        <mxCell id="wD4l3W-HGcE-d99SAAs_-87" value="" style="rounded=0;whiteSpace=wrap;html=1;dashed=1;dashPattern=8 8;fillColor=#ffe6cc;strokeColor=#d79b00;" parent="1" vertex="1">
          <mxGeometry x="1821.5" y="2860" width="120" height="640" as="geometry" />
        </mxCell>
        <mxCell id="wD4l3W-HGcE-d99SAAs_-88" value="工具组件" style="text;strokeColor=none;align=center;fillColor=none;html=1;verticalAlign=middle;whiteSpace=wrap;rounded=0;fontSize=14;" parent="1" vertex="1">
          <mxGeometry x="1821.5" y="2860" width="120" height="30" as="geometry" />
        </mxCell>
        <mxCell id="wD4l3W-HGcE-d99SAAs_-93" value="日志监控工具Prometheus" style="rounded=1;whiteSpace=wrap;html=1;fontSize=14;" parent="1" vertex="1">
          <mxGeometry x="1831.5" y="3430" width="100" height="40" as="geometry" />
        </mxCell>
        <mxCell id="wD4l3W-HGcE-d99SAAs_-96" value="" style="shape=flexArrow;endArrow=classic;html=1;rounded=0;width=8;endSize=7.33;" parent="1" edge="1">
          <mxGeometry width="50" height="50" relative="1" as="geometry">
            <mxPoint x="377" y="2985" as="sourcePoint" />
            <mxPoint x="417" y="2985" as="targetPoint" />
          </mxGeometry>
        </mxCell>
        <mxCell id="wD4l3W-HGcE-d99SAAs_-101" value="" style="html=1;shadow=0;dashed=0;align=center;verticalAlign=middle;shape=mxgraph.arrows2.arrow;dy=0.6;dx=13;direction=south;notch=0;" parent="1" vertex="1">
          <mxGeometry x="423" y="3125" width="20" height="30" as="geometry" />
        </mxCell>
        <mxCell id="wD4l3W-HGcE-d99SAAs_-102" value="" style="html=1;shadow=0;dashed=0;align=center;verticalAlign=middle;shape=mxgraph.arrows2.arrow;dy=0.8;dx=17;direction=south;notch=0;" parent="1" vertex="1">
          <mxGeometry x="1430" y="2820" width="30" height="40" as="geometry" />
        </mxCell>
        <mxCell id="wD4l3W-HGcE-d99SAAs_-103" value="" style="html=1;shadow=0;dashed=0;align=center;verticalAlign=middle;shape=mxgraph.arrows2.arrow;dy=0.75;dx=7;direction=south;notch=0;" parent="1" vertex="1">
          <mxGeometry x="1432.5" y="2920" width="20" height="20" as="geometry" />
        </mxCell>
        <mxCell id="wD4l3W-HGcE-d99SAAs_-104" value="" style="html=1;shadow=0;dashed=0;align=center;verticalAlign=middle;shape=mxgraph.arrows2.arrow;dy=0.75;dx=7;direction=south;notch=0;" parent="1" vertex="1">
          <mxGeometry x="1432.5" y="3001" width="20" height="20" as="geometry" />
        </mxCell>
        <mxCell id="wD4l3W-HGcE-d99SAAs_-105" value="" style="html=1;shadow=0;dashed=0;align=center;verticalAlign=middle;shape=mxgraph.arrows2.twoWayArrow;dy=0.64;dx=16;direction=west;" parent="1" vertex="1">
          <mxGeometry x="420" y="3268" width="40" height="15" as="geometry" />
        </mxCell>
        <mxCell id="wD4l3W-HGcE-d99SAAs_-106" value="" style="html=1;shadow=0;dashed=0;align=center;verticalAlign=middle;shape=mxgraph.arrows2.twoWayArrow;dy=0.73;dx=6;direction=south;" parent="1" vertex="1">
          <mxGeometry x="1434" y="3500" width="15" height="20" as="geometry" />
        </mxCell>
        <mxCell id="wD4l3W-HGcE-d99SAAs_-107" value="" style="html=1;shadow=0;dashed=0;align=center;verticalAlign=middle;shape=mxgraph.arrows2.twoWayArrow;dy=0.73;dx=6;direction=south;" parent="1" vertex="1">
          <mxGeometry x="811" y="3502" width="15" height="20" as="geometry" />
        </mxCell>
        <mxCell id="wD4l3W-HGcE-d99SAAs_-108" value="" style="html=1;shadow=0;dashed=0;align=center;verticalAlign=middle;shape=mxgraph.arrows2.twoWayArrow;dy=0.53;dx=12;direction=west;" parent="1" vertex="1">
          <mxGeometry x="1786" y="3222.5" width="32" height="15" as="geometry" />
        </mxCell>
        <mxCell id="wD4l3W-HGcE-d99SAAs_-109" value="" style="html=1;shadow=0;dashed=0;align=center;verticalAlign=middle;shape=mxgraph.arrows2.twoWayArrow;dy=0.53;dx=12;direction=west;" parent="1" vertex="1">
          <mxGeometry x="1054" y="3194.5" width="32" height="15" as="geometry" />
        </mxCell>
        <mxCell id="wD4l3W-HGcE-d99SAAs_-138" style="edgeStyle=orthogonalEdgeStyle;rounded=0;orthogonalLoop=1;jettySize=auto;html=1;" parent="1" target="wD4l3W-HGcE-d99SAAs_-127" edge="1">
          <mxGeometry relative="1" as="geometry">
            <mxPoint x="1429" y="4350" as="sourcePoint" />
            <Array as="points">
              <mxPoint x="1429" y="4420" />
              <mxPoint x="1549" y="4420" />
            </Array>
          </mxGeometry>
        </mxCell>
        <mxCell id="wD4l3W-HGcE-d99SAAs_-144" style="edgeStyle=orthogonalEdgeStyle;rounded=0;orthogonalLoop=1;jettySize=auto;html=1;" parent="1" target="wD4l3W-HGcE-d99SAAs_-142" edge="1">
          <mxGeometry relative="1" as="geometry">
            <mxPoint x="1429" y="4350" as="sourcePoint" />
            <Array as="points">
              <mxPoint x="1429" y="4420" />
              <mxPoint x="1746" y="4420" />
            </Array>
          </mxGeometry>
        </mxCell>
        <mxCell id="wD4l3W-HGcE-d99SAAs_-112" value="" style="fontColor=#0066CC;verticalAlign=top;verticalLabelPosition=bottom;labelPosition=center;align=center;html=1;outlineConnect=0;fillColor=#CCCCCC;strokeColor=#6881B3;gradientColor=none;gradientDirection=north;strokeWidth=2;shape=mxgraph.networks.desktop_pc;" parent="1" vertex="1">
          <mxGeometry x="1399" y="4220" width="60" height="90" as="geometry" />
        </mxCell>
        <mxCell id="wD4l3W-HGcE-d99SAAs_-115" value="" style="fontColor=#0066CC;verticalAlign=top;verticalLabelPosition=bottom;labelPosition=center;align=center;html=1;outlineConnect=0;fillColor=#CCCCCC;strokeColor=#6881B3;gradientColor=none;gradientDirection=north;strokeWidth=2;shape=mxgraph.networks.monitor;" parent="1" vertex="1">
          <mxGeometry x="1388" y="3937.5" width="80" height="65" as="geometry" />
        </mxCell>
        <mxCell id="wD4l3W-HGcE-d99SAAs_-116" value="仿真业务管理前端服务*1" style="text;strokeColor=none;align=center;fillColor=none;html=1;verticalAlign=middle;whiteSpace=wrap;rounded=0;fontSize=15;" parent="1" vertex="1">
          <mxGeometry x="1373" y="4007.5" width="100" height="30" as="geometry" />
        </mxCell>
        <mxCell id="wD4l3W-HGcE-d99SAAs_-117" value="仿真业务管理后端服务*1" style="text;strokeColor=none;align=center;fillColor=none;html=1;verticalAlign=middle;whiteSpace=wrap;rounded=0;fontSize=15;" parent="1" vertex="1">
          <mxGeometry x="1374" y="4310" width="120" height="30" as="geometry" />
        </mxCell>
        <mxCell id="wD4l3W-HGcE-d99SAAs_-119" value="" style="fontColor=#0066CC;verticalAlign=top;verticalLabelPosition=bottom;labelPosition=center;align=center;html=1;outlineConnect=0;fillColor=#CCCCCC;strokeColor=#6881B3;gradientColor=none;gradientDirection=north;strokeWidth=2;shape=mxgraph.networks.hub;" parent="1" vertex="1">
          <mxGeometry x="1378" y="4097.5" width="100" height="30" as="geometry" />
        </mxCell>
        <mxCell id="wD4l3W-HGcE-d99SAAs_-120" value="网关服务*1" style="text;strokeColor=none;align=center;fillColor=none;html=1;verticalAlign=middle;whiteSpace=wrap;rounded=0;fontSize=15;" parent="1" vertex="1">
          <mxGeometry x="1381" y="4127.5" width="100" height="30" as="geometry" />
        </mxCell>
        <mxCell id="wD4l3W-HGcE-d99SAAs_-122" value="" style="fontColor=#0066CC;verticalAlign=top;verticalLabelPosition=bottom;labelPosition=center;align=center;html=1;outlineConnect=0;fillColor=#CCCCCC;strokeColor=#6881B3;gradientColor=none;gradientDirection=north;strokeWidth=2;shape=mxgraph.networks.desktop_pc;" parent="1" vertex="1">
          <mxGeometry x="964" y="4497.5" width="60" height="90" as="geometry" />
        </mxCell>
        <mxCell id="wD4l3W-HGcE-d99SAAs_-123" value="Redis服务*1" style="text;strokeColor=none;align=center;fillColor=none;html=1;verticalAlign=middle;whiteSpace=wrap;rounded=0;fontSize=15;" parent="1" vertex="1">
          <mxGeometry x="935" y="4587.5" width="120" height="30" as="geometry" />
        </mxCell>
        <mxCell id="wD4l3W-HGcE-d99SAAs_-124" value="" style="fontColor=#0066CC;verticalAlign=top;verticalLabelPosition=bottom;labelPosition=center;align=center;html=1;outlineConnect=0;fillColor=#CCCCCC;strokeColor=#6881B3;gradientColor=none;gradientDirection=north;strokeWidth=2;shape=mxgraph.networks.storage;" parent="1" vertex="1">
          <mxGeometry x="1303" y="4497.5" width="80" height="80" as="geometry" />
        </mxCell>
        <mxCell id="wD4l3W-HGcE-d99SAAs_-125" value="mysql服务*1" style="text;strokeColor=none;align=center;fillColor=none;html=1;verticalAlign=middle;whiteSpace=wrap;rounded=0;fontSize=15;" parent="1" vertex="1">
          <mxGeometry x="1288" y="4587.5" width="120" height="30" as="geometry" />
        </mxCell>
        <mxCell id="wD4l3W-HGcE-d99SAAs_-127" value="" style="fontColor=#0066CC;verticalAlign=top;verticalLabelPosition=bottom;labelPosition=center;align=center;html=1;outlineConnect=0;fillColor=#CCCCCC;strokeColor=#6881B3;gradientColor=none;gradientDirection=north;strokeWidth=2;shape=mxgraph.networks.storage;" parent="1" vertex="1">
          <mxGeometry x="1509" y="4497.5" width="80" height="80" as="geometry" />
        </mxCell>
        <mxCell id="wD4l3W-HGcE-d99SAAs_-128" value="influxdb服务*1" style="text;strokeColor=none;align=center;fillColor=none;html=1;verticalAlign=middle;whiteSpace=wrap;rounded=0;fontSize=15;" parent="1" vertex="1">
          <mxGeometry x="1494" y="4587.5" width="120" height="30" as="geometry" />
        </mxCell>
        <mxCell id="wD4l3W-HGcE-d99SAAs_-129" value="" style="fontColor=#0066CC;verticalAlign=top;verticalLabelPosition=bottom;labelPosition=center;align=center;html=1;outlineConnect=0;fillColor=#CCCCCC;strokeColor=#6881B3;gradientColor=none;gradientDirection=north;strokeWidth=2;shape=mxgraph.networks.desktop_pc;" parent="1" vertex="1">
          <mxGeometry x="1870" y="4477.5" width="60" height="90" as="geometry" />
        </mxCell>
        <mxCell id="wD4l3W-HGcE-d99SAAs_-130" value="Kafka服务*1" style="text;strokeColor=none;align=center;fillColor=none;html=1;verticalAlign=middle;whiteSpace=wrap;rounded=0;fontSize=15;" parent="1" vertex="1">
          <mxGeometry x="1850" y="4587.5" width="120" height="30" as="geometry" />
        </mxCell>
        <mxCell id="wD4l3W-HGcE-d99SAAs_-139" style="edgeStyle=orthogonalEdgeStyle;rounded=0;orthogonalLoop=1;jettySize=auto;html=1;exitX=0;exitY=0.5;exitDx=0;exitDy=0;exitPerimeter=0;entryX=1;entryY=0.5;entryDx=0;entryDy=0;" parent="1" source="wD4l3W-HGcE-d99SAAs_-131" target="wD4l3W-HGcE-d99SAAs_-156" edge="1">
          <mxGeometry relative="1" as="geometry" />
        </mxCell>
        <mxCell id="wD4l3W-HGcE-d99SAAs_-131" value="" style="shape=note;whiteSpace=wrap;html=1;backgroundOutline=1;darkOpacity=0.05;" parent="1" vertex="1">
          <mxGeometry x="2087" y="3946" width="67" height="80" as="geometry" />
        </mxCell>
        <mxCell id="wD4l3W-HGcE-d99SAAs_-132" value="OSS对象存储服务*1" style="text;strokeColor=none;align=center;fillColor=none;html=1;verticalAlign=middle;whiteSpace=wrap;rounded=0;fontSize=15;" parent="1" vertex="1">
          <mxGeometry x="2068" y="4033.5" width="120" height="30" as="geometry" />
        </mxCell>
        <mxCell id="wD4l3W-HGcE-d99SAAs_-133" style="edgeStyle=orthogonalEdgeStyle;rounded=0;orthogonalLoop=1;jettySize=auto;html=1;exitX=0.5;exitY=1;exitDx=0;exitDy=0;exitPerimeter=0;entryX=0.5;entryY=0;entryDx=0;entryDy=0;entryPerimeter=0;" parent="1" source="wD4l3W-HGcE-d99SAAs_-115" target="wD4l3W-HGcE-d99SAAs_-119" edge="1">
          <mxGeometry relative="1" as="geometry" />
        </mxCell>
        <mxCell id="wD4l3W-HGcE-d99SAAs_-134" style="edgeStyle=orthogonalEdgeStyle;rounded=0;orthogonalLoop=1;jettySize=auto;html=1;exitX=0.5;exitY=1;exitDx=0;exitDy=0;exitPerimeter=0;entryX=0.5;entryY=0;entryDx=0;entryDy=0;entryPerimeter=0;" parent="1" source="wD4l3W-HGcE-d99SAAs_-119" target="wD4l3W-HGcE-d99SAAs_-112" edge="1">
          <mxGeometry relative="1" as="geometry" />
        </mxCell>
        <mxCell id="wD4l3W-HGcE-d99SAAs_-135" style="edgeStyle=orthogonalEdgeStyle;rounded=0;orthogonalLoop=1;jettySize=auto;html=1;exitX=0.5;exitY=0;exitDx=0;exitDy=0;exitPerimeter=0;entryX=0;entryY=0.5;entryDx=0;entryDy=0;" parent="1" source="wD4l3W-HGcE-d99SAAs_-122" target="wD4l3W-HGcE-d99SAAs_-157" edge="1">
          <mxGeometry relative="1" as="geometry" />
        </mxCell>
        <mxCell id="wD4l3W-HGcE-d99SAAs_-136" style="edgeStyle=orthogonalEdgeStyle;rounded=0;orthogonalLoop=1;jettySize=auto;html=1;exitX=0.5;exitY=0;exitDx=0;exitDy=0;exitPerimeter=0;entryX=1;entryY=0.5;entryDx=0;entryDy=0;" parent="1" source="wD4l3W-HGcE-d99SAAs_-129" target="wD4l3W-HGcE-d99SAAs_-157" edge="1">
          <mxGeometry relative="1" as="geometry">
            <Array as="points">
              <mxPoint x="1900" y="4280" />
            </Array>
          </mxGeometry>
        </mxCell>
        <mxCell id="wD4l3W-HGcE-d99SAAs_-137" style="edgeStyle=orthogonalEdgeStyle;rounded=0;orthogonalLoop=1;jettySize=auto;html=1;exitX=0.668;exitY=1.023;exitDx=0;exitDy=0;exitPerimeter=0;entryX=0.5;entryY=0;entryDx=0;entryDy=0;entryPerimeter=0;" parent="1" source="wD4l3W-HGcE-d99SAAs_-157" target="wD4l3W-HGcE-d99SAAs_-124" edge="1">
          <mxGeometry relative="1" as="geometry">
            <Array as="points">
              <mxPoint x="1428" y="4420" />
              <mxPoint x="1343" y="4420" />
            </Array>
          </mxGeometry>
        </mxCell>
        <mxCell id="wD4l3W-HGcE-d99SAAs_-141" value="分布式搜索引擎Elasticsearch" style="rounded=1;whiteSpace=wrap;html=1;fontSize=14;" parent="1" vertex="1">
          <mxGeometry x="1711" y="3532" width="100" height="40" as="geometry" />
        </mxCell>
        <mxCell id="wD4l3W-HGcE-d99SAAs_-142" value="" style="fontColor=#0066CC;verticalAlign=top;verticalLabelPosition=bottom;labelPosition=center;align=center;html=1;outlineConnect=0;fillColor=#CCCCCC;strokeColor=#6881B3;gradientColor=none;gradientDirection=north;strokeWidth=2;shape=mxgraph.networks.storage;" parent="1" vertex="1">
          <mxGeometry x="1706" y="4497.5" width="80" height="80" as="geometry" />
        </mxCell>
        <mxCell id="wD4l3W-HGcE-d99SAAs_-143" value="ES服务*1" style="text;strokeColor=none;align=center;fillColor=none;html=1;verticalAlign=middle;whiteSpace=wrap;rounded=0;fontSize=15;" parent="1" vertex="1">
          <mxGeometry x="1691" y="4587.5" width="120" height="30" as="geometry" />
        </mxCell>
        <mxCell id="wD4l3W-HGcE-d99SAAs_-145" value="" style="fontColor=#0066CC;verticalAlign=top;verticalLabelPosition=bottom;labelPosition=center;align=center;html=1;outlineConnect=0;fillColor=#CCCCCC;strokeColor=#6881B3;gradientColor=none;gradientDirection=north;strokeWidth=2;shape=mxgraph.networks.load_balancer;" parent="1" vertex="1">
          <mxGeometry x="1377" y="3770" width="100" height="30" as="geometry" />
        </mxCell>
        <mxCell id="wD4l3W-HGcE-d99SAAs_-146" value="Nginx负载均衡服务*1" style="text;strokeColor=none;align=center;fillColor=none;html=1;verticalAlign=middle;whiteSpace=wrap;rounded=0;fontSize=15;" parent="1" vertex="1">
          <mxGeometry x="1364" y="3800" width="145" height="30" as="geometry" />
        </mxCell>
        <mxCell id="wD4l3W-HGcE-d99SAAs_-147" style="edgeStyle=orthogonalEdgeStyle;rounded=0;orthogonalLoop=1;jettySize=auto;html=1;exitX=0.5;exitY=1;exitDx=0;exitDy=0;exitPerimeter=0;entryX=0.5;entryY=0;entryDx=0;entryDy=0;entryPerimeter=0;" parent="1" source="wD4l3W-HGcE-d99SAAs_-145" target="wD4l3W-HGcE-d99SAAs_-115" edge="1">
          <mxGeometry relative="1" as="geometry" />
        </mxCell>
        <mxCell id="wD4l3W-HGcE-d99SAAs_-148" value="" style="fontColor=#0066CC;verticalAlign=top;verticalLabelPosition=bottom;labelPosition=center;align=center;html=1;outlineConnect=0;fillColor=#CCCCCC;strokeColor=#6881B3;gradientColor=none;gradientDirection=north;strokeWidth=2;shape=mxgraph.networks.monitor;" parent="1" vertex="1">
          <mxGeometry x="1240" y="3937.5" width="80" height="65" as="geometry" />
        </mxCell>
        <mxCell id="wD4l3W-HGcE-d99SAAs_-149" value="竞品管理管理前端服务*1" style="text;strokeColor=none;align=center;fillColor=none;html=1;verticalAlign=middle;whiteSpace=wrap;rounded=0;fontSize=15;" parent="1" vertex="1">
          <mxGeometry x="1225" y="4007.5" width="100" height="30" as="geometry" />
        </mxCell>
        <mxCell id="wD4l3W-HGcE-d99SAAs_-150" value="" style="fontColor=#0066CC;verticalAlign=top;verticalLabelPosition=bottom;labelPosition=center;align=center;html=1;outlineConnect=0;fillColor=#CCCCCC;strokeColor=#6881B3;gradientColor=none;gradientDirection=north;strokeWidth=2;shape=mxgraph.networks.monitor;" parent="1" vertex="1">
          <mxGeometry x="1086" y="3937.5" width="80" height="65" as="geometry" />
        </mxCell>
        <mxCell id="wD4l3W-HGcE-d99SAAs_-151" value="试验业务管理前端服务*1" style="text;strokeColor=none;align=center;fillColor=none;html=1;verticalAlign=middle;whiteSpace=wrap;rounded=0;fontSize=15;" parent="1" vertex="1">
          <mxGeometry x="1071" y="4007.5" width="100" height="30" as="geometry" />
        </mxCell>
        <mxCell id="wD4l3W-HGcE-d99SAAs_-152" value="" style="fontColor=#0066CC;verticalAlign=top;verticalLabelPosition=bottom;labelPosition=center;align=center;html=1;outlineConnect=0;fillColor=#CCCCCC;strokeColor=#6881B3;gradientColor=none;gradientDirection=north;strokeWidth=2;shape=mxgraph.networks.monitor;" parent="1" vertex="1">
          <mxGeometry x="935" y="3937.5" width="80" height="65" as="geometry" />
        </mxCell>
        <mxCell id="wD4l3W-HGcE-d99SAAs_-153" value="性能管理前端服务*1" style="text;strokeColor=none;align=center;fillColor=none;html=1;verticalAlign=middle;whiteSpace=wrap;rounded=0;fontSize=15;" parent="1" vertex="1">
          <mxGeometry x="920" y="4007.5" width="100" height="30" as="geometry" />
        </mxCell>
        <mxCell id="wD4l3W-HGcE-d99SAAs_-154" value="" style="fontColor=#0066CC;verticalAlign=top;verticalLabelPosition=bottom;labelPosition=center;align=center;html=1;outlineConnect=0;fillColor=#CCCCCC;strokeColor=#6881B3;gradientColor=none;gradientDirection=north;strokeWidth=2;shape=mxgraph.networks.monitor;" parent="1" vertex="1">
          <mxGeometry x="1545" y="3937.5" width="80" height="65" as="geometry" />
        </mxCell>
        <mxCell id="wD4l3W-HGcE-d99SAAs_-155" value="IOT管理前端服务*1" style="text;strokeColor=none;align=center;fillColor=none;html=1;verticalAlign=middle;whiteSpace=wrap;rounded=0;fontSize=15;" parent="1" vertex="1">
          <mxGeometry x="1530" y="4007.5" width="100" height="30" as="geometry" />
        </mxCell>
        <mxCell id="wD4l3W-HGcE-d99SAAs_-158" value="" style="fontColor=#0066CC;verticalAlign=top;verticalLabelPosition=bottom;labelPosition=center;align=center;html=1;outlineConnect=0;fillColor=#CCCCCC;strokeColor=#6881B3;gradientColor=none;gradientDirection=north;strokeWidth=2;shape=mxgraph.networks.desktop_pc;" parent="1" vertex="1">
          <mxGeometry x="975" y="4220" width="60" height="90" as="geometry" />
        </mxCell>
        <mxCell id="wD4l3W-HGcE-d99SAAs_-159" value="性能管理后端服务*1" style="text;strokeColor=none;align=center;fillColor=none;html=1;verticalAlign=middle;whiteSpace=wrap;rounded=0;fontSize=15;" parent="1" vertex="1">
          <mxGeometry x="951" y="4310" width="120" height="30" as="geometry" />
        </mxCell>
        <mxCell id="wD4l3W-HGcE-d99SAAs_-160" value="" style="fontColor=#0066CC;verticalAlign=top;verticalLabelPosition=bottom;labelPosition=center;align=center;html=1;outlineConnect=0;fillColor=#CCCCCC;strokeColor=#6881B3;gradientColor=none;gradientDirection=north;strokeWidth=2;shape=mxgraph.networks.desktop_pc;" parent="1" vertex="1">
          <mxGeometry x="1114" y="4220" width="60" height="90" as="geometry" />
        </mxCell>
        <mxCell id="wD4l3W-HGcE-d99SAAs_-161" value="试验业务管理后端服务*1" style="text;strokeColor=none;align=center;fillColor=none;html=1;verticalAlign=middle;whiteSpace=wrap;rounded=0;fontSize=15;" parent="1" vertex="1">
          <mxGeometry x="1090" y="4310" width="120" height="30" as="geometry" />
        </mxCell>
        <mxCell id="wD4l3W-HGcE-d99SAAs_-162" value="" style="fontColor=#0066CC;verticalAlign=top;verticalLabelPosition=bottom;labelPosition=center;align=center;html=1;outlineConnect=0;fillColor=#CCCCCC;strokeColor=#6881B3;gradientColor=none;gradientDirection=north;strokeWidth=2;shape=mxgraph.networks.desktop_pc;" parent="1" vertex="1">
          <mxGeometry x="1271" y="4220" width="60" height="90" as="geometry" />
        </mxCell>
        <mxCell id="wD4l3W-HGcE-d99SAAs_-163" value="竞品管理管理后端服务*1" style="text;strokeColor=none;align=center;fillColor=none;html=1;verticalAlign=middle;whiteSpace=wrap;rounded=0;fontSize=15;" parent="1" vertex="1">
          <mxGeometry x="1247" y="4310" width="120" height="30" as="geometry" />
        </mxCell>
        <mxCell id="wD4l3W-HGcE-d99SAAs_-164" value="" style="fontColor=#0066CC;verticalAlign=top;verticalLabelPosition=bottom;labelPosition=center;align=center;html=1;outlineConnect=0;fillColor=#CCCCCC;strokeColor=#6881B3;gradientColor=none;gradientDirection=north;strokeWidth=2;shape=mxgraph.networks.desktop_pc;" parent="1" vertex="1">
          <mxGeometry x="1549.5" y="4220" width="60" height="90" as="geometry" />
        </mxCell>
        <mxCell id="wD4l3W-HGcE-d99SAAs_-165" value="IOT管理后端服务*1" style="text;strokeColor=none;align=center;fillColor=none;html=1;verticalAlign=middle;whiteSpace=wrap;rounded=0;fontSize=15;" parent="1" vertex="1">
          <mxGeometry x="1525.5" y="4310" width="120" height="30" as="geometry" />
        </mxCell>
        <mxCell id="REPrhJqGSvFfQSss4RAS-1" value="" style="fontColor=#0066CC;verticalAlign=top;verticalLabelPosition=bottom;labelPosition=center;align=center;html=1;outlineConnect=0;fillColor=#CCCCCC;strokeColor=#6881B3;gradientColor=none;gradientDirection=north;strokeWidth=2;shape=mxgraph.networks.monitor;" parent="1" vertex="1">
          <mxGeometry x="1675" y="3937.5" width="80" height="65" as="geometry" />
        </mxCell>
        <mxCell id="REPrhJqGSvFfQSss4RAS-2" value="工时系统前端服务*1" style="text;strokeColor=none;align=center;fillColor=none;html=1;verticalAlign=middle;whiteSpace=wrap;rounded=0;fontSize=15;" parent="1" vertex="1">
          <mxGeometry x="1660" y="4007.5" width="100" height="30" as="geometry" />
        </mxCell>
        <mxCell id="REPrhJqGSvFfQSss4RAS-5" value="" style="fontColor=#0066CC;verticalAlign=top;verticalLabelPosition=bottom;labelPosition=center;align=center;html=1;outlineConnect=0;fillColor=#CCCCCC;strokeColor=#6881B3;gradientColor=none;gradientDirection=north;strokeWidth=2;shape=mxgraph.networks.desktop_pc;" parent="1" vertex="1">
          <mxGeometry x="1697.5" y="4220" width="60" height="90" as="geometry" />
        </mxCell>
        <mxCell id="REPrhJqGSvFfQSss4RAS-6" value="工时系统后端服务*1" style="text;strokeColor=none;align=center;fillColor=none;html=1;verticalAlign=middle;whiteSpace=wrap;rounded=0;fontSize=15;" parent="1" vertex="1">
          <mxGeometry x="1673.5" y="4310" width="120" height="30" as="geometry" />
        </mxCell>
        <mxCell id="REPrhJqGSvFfQSss4RAS-12" style="edgeStyle=orthogonalEdgeStyle;rounded=0;orthogonalLoop=1;jettySize=auto;html=1;exitX=0.5;exitY=0;exitDx=0;exitDy=0;exitPerimeter=0;entryX=1;entryY=0.5;entryDx=0;entryDy=0;" parent="1" source="REPrhJqGSvFfQSss4RAS-7" target="REPrhJqGSvFfQSss4RAS-11" edge="1">
          <mxGeometry relative="1" as="geometry" />
        </mxCell>
        <mxCell id="REPrhJqGSvFfQSss4RAS-7" value="" style="fontColor=#0066CC;verticalAlign=top;verticalLabelPosition=bottom;labelPosition=center;align=center;html=1;outlineConnect=0;fillColor=#CCCCCC;strokeColor=#6881B3;gradientColor=none;gradientDirection=north;strokeWidth=2;shape=mxgraph.networks.desktop_pc;" parent="1" vertex="1">
          <mxGeometry x="2000" y="4477.5" width="60" height="90" as="geometry" />
        </mxCell>
        <mxCell id="REPrhJqGSvFfQSss4RAS-8" value="nacos服务*1" style="text;strokeColor=none;align=center;fillColor=none;html=1;verticalAlign=middle;whiteSpace=wrap;rounded=0;fontSize=15;" parent="1" vertex="1">
          <mxGeometry x="1980" y="4587.5" width="120" height="30" as="geometry" />
        </mxCell>
        <mxCell id="REPrhJqGSvFfQSss4RAS-15" style="edgeStyle=orthogonalEdgeStyle;rounded=0;orthogonalLoop=1;jettySize=auto;html=1;exitX=0.5;exitY=0;exitDx=0;exitDy=0;exitPerimeter=0;" parent="1" source="REPrhJqGSvFfQSss4RAS-13" edge="1">
          <mxGeometry relative="1" as="geometry">
            <mxPoint x="1980" y="4230" as="targetPoint" />
            <Array as="points">
              <mxPoint x="2150" y="4230" />
            </Array>
          </mxGeometry>
        </mxCell>
        <mxCell id="REPrhJqGSvFfQSss4RAS-13" value="" style="fontColor=#0066CC;verticalAlign=top;verticalLabelPosition=bottom;labelPosition=center;align=center;html=1;outlineConnect=0;fillColor=#CCCCCC;strokeColor=#6881B3;gradientColor=none;gradientDirection=north;strokeWidth=2;shape=mxgraph.networks.desktop_pc;" parent="1" vertex="1">
          <mxGeometry x="2120" y="4477.5" width="60" height="90" as="geometry" />
        </mxCell>
        <mxCell id="REPrhJqGSvFfQSss4RAS-14" value="SkyWalking OAP服务*1" style="text;strokeColor=none;align=center;fillColor=none;html=1;verticalAlign=middle;whiteSpace=wrap;rounded=0;fontSize=15;" parent="1" vertex="1">
          <mxGeometry x="2100" y="4587.5" width="120" height="30" as="geometry" />
        </mxCell>
        <mxCell id="REPrhJqGSvFfQSss4RAS-22" style="edgeStyle=orthogonalEdgeStyle;rounded=0;orthogonalLoop=1;jettySize=auto;html=1;exitX=0.5;exitY=0;exitDx=0;exitDy=0;exitPerimeter=0;entryX=1;entryY=0.5;entryDx=0;entryDy=0;" parent="1" source="REPrhJqGSvFfQSss4RAS-16" target="REPrhJqGSvFfQSss4RAS-11" edge="1">
          <mxGeometry relative="1" as="geometry" />
        </mxCell>
        <mxCell id="REPrhJqGSvFfQSss4RAS-16" value="" style="fontColor=#0066CC;verticalAlign=top;verticalLabelPosition=bottom;labelPosition=center;align=center;html=1;outlineConnect=0;fillColor=#CCCCCC;strokeColor=#6881B3;gradientColor=none;gradientDirection=north;strokeWidth=2;shape=mxgraph.networks.desktop_pc;" parent="1" vertex="1">
          <mxGeometry x="2260" y="4477.5" width="60" height="90" as="geometry" />
        </mxCell>
        <mxCell id="REPrhJqGSvFfQSss4RAS-17" value="Loki服务*1" style="text;strokeColor=none;align=center;fillColor=none;html=1;verticalAlign=middle;whiteSpace=wrap;rounded=0;fontSize=15;" parent="1" vertex="1">
          <mxGeometry x="2240" y="4587.5" width="120" height="30" as="geometry" />
        </mxCell>
        <mxCell id="REPrhJqGSvFfQSss4RAS-24" style="edgeStyle=orthogonalEdgeStyle;rounded=0;orthogonalLoop=1;jettySize=auto;html=1;exitX=0.5;exitY=0;exitDx=0;exitDy=0;exitPerimeter=0;entryX=1;entryY=0.5;entryDx=0;entryDy=0;" parent="1" source="REPrhJqGSvFfQSss4RAS-18" target="REPrhJqGSvFfQSss4RAS-11" edge="1">
          <mxGeometry relative="1" as="geometry" />
        </mxCell>
        <mxCell id="REPrhJqGSvFfQSss4RAS-18" value="" style="fontColor=#0066CC;verticalAlign=top;verticalLabelPosition=bottom;labelPosition=center;align=center;html=1;outlineConnect=0;fillColor=#CCCCCC;strokeColor=#6881B3;gradientColor=none;gradientDirection=north;strokeWidth=2;shape=mxgraph.networks.desktop_pc;" parent="1" vertex="1">
          <mxGeometry x="2410" y="4477.5" width="60" height="90" as="geometry" />
        </mxCell>
        <mxCell id="REPrhJqGSvFfQSss4RAS-19" value="Grafana服务*1" style="text;strokeColor=none;align=center;fillColor=none;html=1;verticalAlign=middle;whiteSpace=wrap;rounded=0;fontSize=15;" parent="1" vertex="1">
          <mxGeometry x="2390" y="4587.5" width="120" height="30" as="geometry" />
        </mxCell>
        <mxCell id="REPrhJqGSvFfQSss4RAS-25" style="edgeStyle=orthogonalEdgeStyle;rounded=0;orthogonalLoop=1;jettySize=auto;html=1;exitX=0.5;exitY=0;exitDx=0;exitDy=0;exitPerimeter=0;" parent="1" source="REPrhJqGSvFfQSss4RAS-20" edge="1">
          <mxGeometry relative="1" as="geometry">
            <mxPoint x="1980" y="4230" as="targetPoint" />
            <Array as="points">
              <mxPoint x="2580" y="4230" />
            </Array>
          </mxGeometry>
        </mxCell>
        <mxCell id="REPrhJqGSvFfQSss4RAS-20" value="" style="fontColor=#0066CC;verticalAlign=top;verticalLabelPosition=bottom;labelPosition=center;align=center;html=1;outlineConnect=0;fillColor=#CCCCCC;strokeColor=#6881B3;gradientColor=none;gradientDirection=north;strokeWidth=2;shape=mxgraph.networks.desktop_pc;" parent="1" vertex="1">
          <mxGeometry x="2550" y="4477.5" width="60" height="90" as="geometry" />
        </mxCell>
        <mxCell id="REPrhJqGSvFfQSss4RAS-21" value="Prometheus服务*1" style="text;strokeColor=none;align=center;fillColor=none;html=1;verticalAlign=middle;whiteSpace=wrap;rounded=0;fontSize=15;" parent="1" vertex="1">
          <mxGeometry x="2530" y="4587.5" width="120" height="30" as="geometry" />
        </mxCell>
        <mxCell id="USW0w0qvwE-yAAdEJ6Uj-1" value="日志收集工具Promtail" style="rounded=1;whiteSpace=wrap;html=1;fontSize=14;" vertex="1" parent="1">
          <mxGeometry x="1831.5" y="3322.5" width="100" height="40" as="geometry" />
        </mxCell>
        <mxCell id="USW0w0qvwE-yAAdEJ6Uj-2" value="可视化监控平台Grafana" style="rounded=1;whiteSpace=wrap;html=1;fontSize=14;" vertex="1" parent="1">
          <mxGeometry x="1830" y="3194.5" width="100" height="40" as="geometry" />
        </mxCell>
        <mxCell id="USW0w0qvwE-yAAdEJ6Uj-3" value="日志聚合系统&lt;div&gt;Loki&lt;/div&gt;" style="rounded=1;whiteSpace=wrap;html=1;fontSize=14;" vertex="1" parent="1">
          <mxGeometry x="1831.5" y="3070" width="100" height="60" as="geometry" />
        </mxCell>
        <mxCell id="USW0w0qvwE-yAAdEJ6Uj-4" value="" style="rounded=0;whiteSpace=wrap;html=1;dashed=1;" vertex="1" parent="1">
          <mxGeometry x="1437" y="3222.5" width="137" height="120" as="geometry" />
        </mxCell>
        <mxCell id="USW0w0qvwE-yAAdEJ6Uj-5" value="工时管理" style="rounded=1;whiteSpace=wrap;html=1;fillColor=#dae8fc;strokeColor=#6c8ebf;fontSize=14;" vertex="1" parent="1">
          <mxGeometry x="1454" y="3232.5" width="100" height="40" as="geometry" />
        </mxCell>
        <mxCell id="USW0w0qvwE-yAAdEJ6Uj-11" value="" style="rounded=0;whiteSpace=wrap;html=1;dashed=1;" vertex="1" parent="1">
          <mxGeometry x="1133" y="3082.5" width="137" height="120" as="geometry" />
        </mxCell>
        <mxCell id="USW0w0qvwE-yAAdEJ6Uj-12" value="知识库管理" style="rounded=1;whiteSpace=wrap;html=1;fillColor=#dae8fc;strokeColor=#6c8ebf;fontSize=14;" vertex="1" parent="1">
          <mxGeometry x="1150" y="3092.5" width="100" height="40" as="geometry" />
        </mxCell>
        <mxCell id="USW0w0qvwE-yAAdEJ6Uj-14" value="" style="rounded=0;whiteSpace=wrap;html=1;dashed=1;" vertex="1" parent="1">
          <mxGeometry x="1284.5" y="3082.5" width="137" height="120" as="geometry" />
        </mxCell>
        <mxCell id="USW0w0qvwE-yAAdEJ6Uj-15" value="系统管理" style="rounded=1;whiteSpace=wrap;html=1;fillColor=#dae8fc;strokeColor=#6c8ebf;fontSize=14;" vertex="1" parent="1">
          <mxGeometry x="1301.5" y="3092.5" width="100" height="40" as="geometry" />
        </mxCell>
        <mxCell id="USW0w0qvwE-yAAdEJ6Uj-17" value="" style="rounded=0;whiteSpace=wrap;html=1;dashed=1;" vertex="1" parent="1">
          <mxGeometry x="1437" y="3082.5" width="137" height="120" as="geometry" />
        </mxCell>
        <mxCell id="USW0w0qvwE-yAAdEJ6Uj-18" value="流程管理" style="rounded=1;whiteSpace=wrap;html=1;fillColor=#dae8fc;strokeColor=#6c8ebf;fontSize=14;" vertex="1" parent="1">
          <mxGeometry x="1454" y="3092.5" width="100" height="40" as="geometry" />
        </mxCell>
        <mxCell id="USW0w0qvwE-yAAdEJ6Uj-20" value="VUE" style="text;strokeColor=none;align=center;fillColor=none;html=1;verticalAlign=middle;whiteSpace=wrap;rounded=0;fontSize=14;horizontal=1;" vertex="1" parent="1">
          <mxGeometry x="1351" y="2775" width="109" height="30" as="geometry" />
        </mxCell>
        <mxCell id="USW0w0qvwE-yAAdEJ6Uj-22" value="Springboot" style="rounded=0;whiteSpace=wrap;html=1;" vertex="1" parent="1">
          <mxGeometry x="1133.5" y="3142.5" width="135" height="30" as="geometry" />
        </mxCell>
        <mxCell id="USW0w0qvwE-yAAdEJ6Uj-23" value="grpc" style="rounded=0;whiteSpace=wrap;html=1;" vertex="1" parent="1">
          <mxGeometry x="1133.5" y="3172" width="135" height="30" as="geometry" />
        </mxCell>
        <mxCell id="USW0w0qvwE-yAAdEJ6Uj-24" value="Springboot" style="rounded=0;whiteSpace=wrap;html=1;" vertex="1" parent="1">
          <mxGeometry x="1285.5" y="3142.5" width="135" height="30" as="geometry" />
        </mxCell>
        <mxCell id="USW0w0qvwE-yAAdEJ6Uj-25" value="grpc" style="rounded=0;whiteSpace=wrap;html=1;" vertex="1" parent="1">
          <mxGeometry x="1285.5" y="3172" width="135" height="30" as="geometry" />
        </mxCell>
        <mxCell id="USW0w0qvwE-yAAdEJ6Uj-26" value="Springboot" style="rounded=0;whiteSpace=wrap;html=1;" vertex="1" parent="1">
          <mxGeometry x="1437.5" y="3142.5" width="135" height="30" as="geometry" />
        </mxCell>
        <mxCell id="USW0w0qvwE-yAAdEJ6Uj-27" value="grpc" style="rounded=0;whiteSpace=wrap;html=1;" vertex="1" parent="1">
          <mxGeometry x="1437.5" y="3172" width="135" height="30" as="geometry" />
        </mxCell>
        <mxCell id="USW0w0qvwE-yAAdEJ6Uj-28" value="Springboot" style="rounded=0;whiteSpace=wrap;html=1;" vertex="1" parent="1">
          <mxGeometry x="1134" y="3283" width="135" height="30" as="geometry" />
        </mxCell>
        <mxCell id="USW0w0qvwE-yAAdEJ6Uj-29" value="grpc" style="rounded=0;whiteSpace=wrap;html=1;" vertex="1" parent="1">
          <mxGeometry x="1134" y="3312.5" width="135" height="30" as="geometry" />
        </mxCell>
        <mxCell id="USW0w0qvwE-yAAdEJ6Uj-30" value="Springboot" style="rounded=0;whiteSpace=wrap;html=1;" vertex="1" parent="1">
          <mxGeometry x="1286" y="3283" width="135" height="30" as="geometry" />
        </mxCell>
        <mxCell id="USW0w0qvwE-yAAdEJ6Uj-31" value="grpc" style="rounded=0;whiteSpace=wrap;html=1;" vertex="1" parent="1">
          <mxGeometry x="1286" y="3312.5" width="135" height="30" as="geometry" />
        </mxCell>
        <mxCell id="USW0w0qvwE-yAAdEJ6Uj-32" value="Springboot" style="rounded=0;whiteSpace=wrap;html=1;" vertex="1" parent="1">
          <mxGeometry x="1438" y="3283" width="135" height="30" as="geometry" />
        </mxCell>
        <mxCell id="USW0w0qvwE-yAAdEJ6Uj-33" value="grpc" style="rounded=0;whiteSpace=wrap;html=1;" vertex="1" parent="1">
          <mxGeometry x="1438" y="3312.5" width="135" height="30" as="geometry" />
        </mxCell>
        <mxCell id="USW0w0qvwE-yAAdEJ6Uj-34" value="Springboot" style="rounded=0;whiteSpace=wrap;html=1;" vertex="1" parent="1">
          <mxGeometry x="1289.5" y="3423" width="135" height="30" as="geometry" />
        </mxCell>
        <mxCell id="USW0w0qvwE-yAAdEJ6Uj-35" value="grpc" style="rounded=0;whiteSpace=wrap;html=1;" vertex="1" parent="1">
          <mxGeometry x="1289.5" y="3452.5" width="135" height="30" as="geometry" />
        </mxCell>
        <mxCell id="USW0w0qvwE-yAAdEJ6Uj-36" value="Springboot" style="rounded=0;whiteSpace=wrap;html=1;" vertex="1" parent="1">
          <mxGeometry x="1441.5" y="3423" width="135" height="30" as="geometry" />
        </mxCell>
        <mxCell id="USW0w0qvwE-yAAdEJ6Uj-37" value="grpc" style="rounded=0;whiteSpace=wrap;html=1;" vertex="1" parent="1">
          <mxGeometry x="1441.5" y="3452.5" width="135" height="30" as="geometry" />
        </mxCell>
        <mxCell id="USW0w0qvwE-yAAdEJ6Uj-42" value="" style="rounded=0;whiteSpace=wrap;html=1;dashed=1;" vertex="1" parent="1">
          <mxGeometry x="1600" y="3362.5" width="137" height="120" as="geometry" />
        </mxCell>
        <mxCell id="USW0w0qvwE-yAAdEJ6Uj-43" value="可视化工具" style="rounded=1;whiteSpace=wrap;html=1;fillColor=#dae8fc;strokeColor=#6c8ebf;fontSize=14;" vertex="1" parent="1">
          <mxGeometry x="1617" y="3372.5" width="100" height="40" as="geometry" />
        </mxCell>
        <mxCell id="USW0w0qvwE-yAAdEJ6Uj-44" value="" style="rounded=0;whiteSpace=wrap;html=1;dashed=1;" vertex="1" parent="1">
          <mxGeometry x="1600.5" y="3222.5" width="137" height="120" as="geometry" />
        </mxCell>
        <mxCell id="USW0w0qvwE-yAAdEJ6Uj-45" value="消息管理" style="rounded=1;whiteSpace=wrap;html=1;fillColor=#dae8fc;strokeColor=#6c8ebf;fontSize=14;" vertex="1" parent="1">
          <mxGeometry x="1617.5" y="3232.5" width="100" height="40" as="geometry" />
        </mxCell>
        <mxCell id="USW0w0qvwE-yAAdEJ6Uj-46" value="" style="rounded=0;whiteSpace=wrap;html=1;dashed=1;" vertex="1" parent="1">
          <mxGeometry x="1600.5" y="3082.5" width="137" height="120" as="geometry" />
        </mxCell>
        <mxCell id="USW0w0qvwE-yAAdEJ6Uj-47" value="文件管理" style="rounded=1;whiteSpace=wrap;html=1;fillColor=#dae8fc;strokeColor=#6c8ebf;fontSize=14;" vertex="1" parent="1">
          <mxGeometry x="1617.5" y="3092.5" width="100" height="40" as="geometry" />
        </mxCell>
        <mxCell id="USW0w0qvwE-yAAdEJ6Uj-48" value="Springboot" style="rounded=0;whiteSpace=wrap;html=1;" vertex="1" parent="1">
          <mxGeometry x="1601" y="3142.5" width="135" height="30" as="geometry" />
        </mxCell>
        <mxCell id="USW0w0qvwE-yAAdEJ6Uj-49" value="grpc" style="rounded=0;whiteSpace=wrap;html=1;" vertex="1" parent="1">
          <mxGeometry x="1601" y="3172" width="135" height="30" as="geometry" />
        </mxCell>
        <mxCell id="USW0w0qvwE-yAAdEJ6Uj-50" value="Springboot" style="rounded=0;whiteSpace=wrap;html=1;" vertex="1" parent="1">
          <mxGeometry x="1601.5" y="3283" width="135" height="30" as="geometry" />
        </mxCell>
        <mxCell id="USW0w0qvwE-yAAdEJ6Uj-51" value="grpc" style="rounded=0;whiteSpace=wrap;html=1;" vertex="1" parent="1">
          <mxGeometry x="1601.5" y="3312.5" width="135" height="30" as="geometry" />
        </mxCell>
        <mxCell id="USW0w0qvwE-yAAdEJ6Uj-52" value="Springboot" style="rounded=0;whiteSpace=wrap;html=1;" vertex="1" parent="1">
          <mxGeometry x="1600.5" y="3423" width="135" height="30" as="geometry" />
        </mxCell>
        <mxCell id="USW0w0qvwE-yAAdEJ6Uj-53" value="grpc" style="rounded=0;whiteSpace=wrap;html=1;" vertex="1" parent="1">
          <mxGeometry x="1600.5" y="3452.5" width="135" height="30" as="geometry" />
        </mxCell>
        <mxCell id="USW0w0qvwE-yAAdEJ6Uj-54" value="文件处理服务" style="rounded=1;whiteSpace=wrap;html=1;fontSize=14;" vertex="1" parent="1">
          <mxGeometry x="1830" y="2950" width="100" height="40" as="geometry" />
        </mxCell>
        <mxCell id="USW0w0qvwE-yAAdEJ6Uj-55" value="Nginx负载均衡" style="rounded=1;whiteSpace=wrap;html=1;fontSize=14;" vertex="1" parent="1">
          <mxGeometry x="1276" y="2870" width="100" height="40" as="geometry" />
        </mxCell>
        <mxCell id="USW0w0qvwE-yAAdEJ6Uj-56" value="Nginx负载均衡" style="rounded=1;whiteSpace=wrap;html=1;fontSize=14;" vertex="1" parent="1">
          <mxGeometry x="1403" y="2870" width="100" height="40" as="geometry" />
        </mxCell>
        <mxCell id="USW0w0qvwE-yAAdEJ6Uj-58" value="信创数据库KingbaseES" style="rounded=1;whiteSpace=wrap;html=1;fontSize=14;" vertex="1" parent="1">
          <mxGeometry x="1830" y="3532" width="100" height="40" as="geometry" />
        </mxCell>
        <mxCell id="USW0w0qvwE-yAAdEJ6Uj-63" value="" style="rounded=0;whiteSpace=wrap;html=1;dashed=1;" vertex="1" parent="1">
          <mxGeometry x="1131.5" y="3362.5" width="137" height="120" as="geometry" />
        </mxCell>
        <mxCell id="USW0w0qvwE-yAAdEJ6Uj-64" value="IIOT" style="rounded=1;whiteSpace=wrap;html=1;fillColor=#dae8fc;strokeColor=#6c8ebf;fontSize=14;" vertex="1" parent="1">
          <mxGeometry x="1148.5" y="3372.5" width="100" height="40" as="geometry" />
        </mxCell>
        <mxCell id="USW0w0qvwE-yAAdEJ6Uj-65" value="Springboot" style="rounded=0;whiteSpace=wrap;html=1;" vertex="1" parent="1">
          <mxGeometry x="1132" y="3423" width="135" height="30" as="geometry" />
        </mxCell>
        <mxCell id="USW0w0qvwE-yAAdEJ6Uj-66" value="grpc" style="rounded=0;whiteSpace=wrap;html=1;" vertex="1" parent="1">
          <mxGeometry x="1132" y="3452.5" width="135" height="30" as="geometry" />
        </mxCell>
        <mxCell id="USW0w0qvwE-yAAdEJ6Uj-67" value="" style="html=1;shadow=0;dashed=0;align=center;verticalAlign=middle;shape=mxgraph.arrows2.twoWayArrow;dy=0.53;dx=12;direction=west;" vertex="1" parent="1">
          <mxGeometry x="1057" y="3422.5" width="73" height="15" as="geometry" />
        </mxCell>
        <mxCell id="USW0w0qvwE-yAAdEJ6Uj-74" value="" style="html=1;shadow=0;dashed=0;align=center;verticalAlign=middle;shape=mxgraph.arrows2.twoWayArrow;dy=0.73;dx=6;direction=south;" vertex="1" parent="1">
          <mxGeometry x="994" y="3502" width="15" height="20" as="geometry" />
        </mxCell>
      </root>
    </mxGraphModel>
  </diagram>
</mxfile>
